<svg width="47" height="35" viewBox="0 0 47 35" fill="none" xmlns="http://www.w3.org/2000/svg">
<g clip-path="url(#clip0_1_334)">
<path d="M22.24 33.1089L22.5176 32.6717C22.3514 32.0866 21.7501 32.2497 21.3293 32.1702C21.1725 32.1404 19.7738 31.7891 19.8239 31.6774C20.0661 31.5138 20.3585 31.5477 20.6296 31.4243C20.9792 31.2654 21.6122 30.6662 21.8521 30.357C22.3502 29.7164 22.7828 28.8583 23.0056 28.0827L22.7828 28.0909L21.739 29.4265C21.0322 29.7649 20.4958 30.3401 19.7579 30.6183C19.5657 30.6908 19.1124 30.8585 18.9374 30.8059C18.7328 30.744 18.1723 30.2132 18.1723 29.9824C18.5932 29.9835 18.6238 29.8105 18.9114 29.603C20.2371 28.6456 20.2005 27.6928 21.0369 26.4501C21.1195 26.3274 21.2592 26.2456 21.3464 26.1141C21.9541 25.1987 22.5152 23.9204 22.5341 22.8215L22.2288 23.3066C21.5002 24.9468 19.337 28.8741 17.35 29.0495C17.2428 29.0588 17.1962 29.1144 17.1131 28.9881C17.1149 28.9478 17.6736 28.7216 17.7791 28.6561C18.6727 28.1043 21.0611 23.821 21.0611 22.7923V21.7986C21.0611 21.7887 20.9815 21.7068 20.9438 21.7109C20.9191 23.1003 20.1764 24.319 19.4243 25.436C18.7093 26.4987 18.358 26.8809 17.3524 27.6484C17.0577 27.8734 16.7423 28.3533 16.3179 28.3638C16.2154 28.3662 15.8423 28.3118 15.8741 28.1704C16.595 27.4099 17.4485 26.7933 17.9843 25.8785L18.526 24.9257L17.5092 25.9334C17.1048 26.0661 16.8484 26.5647 16.4046 26.2993C16.6692 26.0772 17.1485 25.868 17.3724 25.6225C18.0391 24.8942 18.9315 23.5831 19.2038 22.6456C19.3229 22.2358 19.3341 21.8413 19.4626 21.4461L19.3523 21.3596C19.0841 22.3106 18.6721 23.2096 18.1352 24.0402C17.5381 24.9649 16.8443 25.7201 15.8741 26.269C16.2378 25.481 16.7423 24.7469 16.875 23.8725L15.7574 26.0077L15.6377 26.0346C15.7763 25.7996 15.8452 25.5494 15.814 25.2753C15.7992 25.2548 15.7456 25.308 15.7262 25.3331C15.5405 25.5728 15.3813 26.3274 15.2711 26.6354C15.178 26.8955 14.9127 27.2164 14.9617 27.5058C14.9693 27.5502 15.4998 28.1084 15.5764 28.171C15.689 28.2616 15.8446 28.2721 15.9283 28.4018C15.9283 28.4661 15.2422 29.2622 15.1438 29.4317C14.9322 29.7959 14.8072 30.2191 14.5662 30.6125C14.328 31 13.8783 31.4588 13.6814 31.8393C13.2936 32.5881 13.326 33.5999 12.4165 34.0967C11.9485 34.3522 10.8073 34.562 10.2486 34.5702C9.97035 34.5743 8.76968 34.517 8.60346 34.3989C8.4225 34.0611 8.68067 33.2983 8.94887 33.0493C9.08679 32.9213 9.66208 32.6828 9.84657 32.6524C10.0075 32.6267 10.3665 32.7132 10.5256 32.6886C10.8138 32.6442 11.4062 31.8318 11.5153 31.5605C11.5624 31.4431 11.7858 30.4149 11.6597 30.4178C11.108 30.8667 10.67 31.4197 10.093 31.8452C9.2648 32.4566 8.33586 32.6448 7.53423 33.2825C7.16289 33.5777 6.74262 34.1552 6.34476 34.3826C4.97904 35.1617 2.35312 35.0886 0.841229 34.7765C0.158077 34.6351 -0.0794641 34.5269 0.0248653 33.7846C0.0950077 33.2831 0.677956 32.8359 1.11944 32.6489C1.94523 32.2982 2.8618 32.456 3.7153 32.1252C4.31239 31.8937 5.35156 30.9006 5.77831 30.4009C6.08717 30.0396 6.34888 29.6574 6.67837 29.2739C7.57844 28.2276 8.4396 27.1071 9.30724 26.0398C10.1808 24.9649 10.1637 25.2186 11.3508 24.7329C11.9709 24.4792 12.6611 24.0507 13.1291 23.5738C13.2246 23.4762 13.6567 22.9893 13.6944 22.9068C13.7062 22.8817 13.7091 22.811 13.6655 22.8203C13.2494 23.2745 12.5703 23.7216 12.0062 23.9806C11.7917 24.0794 10.591 24.5347 10.4525 24.3985C10.4484 23.8502 10.3617 23.6515 10.8622 23.3715C11.9373 22.7706 13.158 22.4638 13.9266 21.4286C13.9814 21.355 14.0616 21.2819 14.048 21.1831C13.5181 21.6595 13.0124 22.0605 12.2939 22.2194C11.899 22.3071 11.4663 22.2662 11.0543 22.393C10.8262 22.4632 10.6252 22.6584 10.4814 22.7017C10.3647 22.7367 10.4083 22.6736 10.3942 22.6128C10.3311 22.3416 10.3641 22.0201 10.2904 21.7448C10.4378 21.6016 10.5468 21.4157 10.6877 21.269C11.1763 20.7605 11.751 20.3221 12.2526 19.8399C12.5874 19.5178 12.937 18.9988 13.3124 18.7282C13.613 18.5119 14.0528 18.4318 14.3911 18.2757C14.4742 18.2378 14.552 18.3108 14.5202 18.1436C13.9125 18.1384 13.3631 18.433 12.8739 18.7609C12.776 18.8264 12.1118 19.4348 12.0452 19.3705C12.1878 19.0789 12.4513 18.9754 12.6481 18.7124C12.7654 18.5551 12.9835 18.2185 12.9594 18.0273C12.6387 18.3032 12.2727 18.7638 11.9249 18.9889C11.5353 19.2414 10.8975 19.3542 10.4837 19.664C10.2657 19.827 9.94854 20.2099 9.9232 20.4823C9.69037 20.3262 9.83183 19.8814 9.88783 19.6517C10.169 18.4903 11.4811 18.1951 12.3116 17.5013C12.8992 17.0103 13.3366 16.317 13.962 15.8646C14.6092 15.3959 15.5028 15.1141 16.1329 14.6857C16.193 14.6448 16.2737 14.5957 16.2902 14.5208C15.4786 14.6629 14.5998 14.9253 13.8712 15.307C13.369 15.5695 12.8155 16.0762 12.2792 16.2416C11.9267 16.3504 11.5724 16.3369 11.2188 16.4176C10.3175 16.6245 9.40214 17.7175 9.45165 18.6697C9.35793 18.6604 9.32551 18.4377 9.31313 18.3652C9.23356 17.89 9.52828 16.5935 9.84186 16.2212C9.93911 16.1055 10.1283 16.0634 10.222 15.9529C10.7519 15.3269 11.2624 14.695 12.0723 14.3408C12.4259 14.1859 13.2376 14.0877 13.6525 13.979C14.5096 13.7551 15.366 13.5435 16.1724 13.1747C16.1871 13.0829 15.9778 13.0824 15.9307 13.0917C15.7863 13.1209 15.6371 13.2507 15.4886 13.2864C15.0135 13.4009 14.1577 13.5073 13.7127 13.3062C13.6331 13.27 13.6189 13.3004 13.6384 13.1759C13.9579 13.1969 14.2791 13.1256 14.5815 13.0297C15.3507 12.7872 17.3471 11.5229 17.8817 10.9249C18.1888 10.5812 18.4163 9.96165 18.7069 9.58054C18.5537 9.48994 18.4894 9.77811 18.4128 9.87338C17.5451 10.9582 16.6522 11.6497 15.3684 12.2319C14.2744 12.7281 12.4572 12.5195 11.5542 13.1841C11.2978 13.3729 11.2188 13.8206 10.8404 13.3483C10.4684 12.8836 10.7596 12.0472 11.0455 11.5971C11.1298 11.5147 11.1528 11.6018 11.1628 11.6836C11.1834 11.8467 11.0938 12.3774 11.3679 12.3979C11.5211 12.4096 12.7142 11.7427 13.0201 11.6515C13.2676 11.5778 13.6195 11.5609 13.8971 11.4738C14.4689 11.2943 15.0689 10.9536 15.5246 10.5742C15.1638 10.5584 14.8208 10.7917 14.4659 10.8688C13.4704 11.0868 12.545 11.036 11.586 10.7098C11.4911 10.4065 11.5217 10.1487 11.576 9.84357C11.6679 9.73953 11.8724 10.2171 11.9332 10.2779C12.1318 10.4778 12.4984 10.6496 12.7843 10.6666C13.178 10.6899 14.2154 10.4404 14.5939 10.2942C14.8084 10.2112 14.954 9.9745 15.2281 10.0166L15.221 9.79448C14.9345 9.59457 14.8055 9.97158 14.5827 9.72726L14.4382 10.061L14.1724 10.0166L14.1689 9.78571L13.8753 9.96048V9.49345C13.6879 9.47767 13.6714 9.71206 13.6384 9.84357L13.5211 9.5519L13.3154 9.72667C13.2057 9.6805 13.2558 9.4917 13.2146 9.44669C13.1869 9.4163 13.0696 9.43968 13.0207 9.3783C12.9081 9.23685 13.0672 8.93816 12.6959 9.02584L12.7548 8.73359L12.5196 8.8499L12.5138 8.61902L12.3422 8.6161C12.3817 8.28059 12.7112 8.07952 12.6369 7.68088C12.8645 7.6423 12.6959 7.83987 12.703 7.94683C12.713 8.09822 12.888 8.29169 12.8144 8.4992L12.99 8.38229L13.0201 8.55706L13.4032 8.38229L13.3454 8.64065C13.438 8.80548 13.6013 8.58863 13.5836 8.78502L13.6973 8.79028C13.7421 8.56232 13.8288 8.31917 14.051 8.20577C14.1205 8.51322 13.8011 8.6728 13.8164 8.96564L14.0197 8.90368L14.0528 9.02409C14.3422 8.95512 14.4465 8.09179 14.6705 8.08887C14.8367 8.47406 14.5408 8.95336 15.168 8.96447C15.2576 8.90017 15.3236 8.27065 15.5252 8.20636C15.6654 8.50387 15.3625 8.8388 15.7303 8.96505C16.0114 8.85283 15.9773 8.05847 16.2048 7.85623L16.3498 8.29169C16.361 8.37353 16.1883 8.56057 16.2337 8.61493C16.325 8.72482 16.4771 8.30981 16.4983 8.26364C16.6021 8.03626 16.7294 7.74985 16.7052 7.50494C17.0347 7.52657 16.7806 7.88137 16.8237 8.08945C17.3029 7.71069 17.0011 7.03967 17.0695 6.61414C17.0972 6.44054 17.241 6.30201 17.2982 6.13484C17.4001 5.83616 17.5298 5.17098 17.2952 4.93309C17.0571 5.63509 17.106 6.71117 16.1729 6.82749L16.1116 7.03558C16.0515 7.03733 15.9967 6.99758 15.9348 7.01044C15.8075 7.03675 15.2876 7.09695 15.142 7.08526C15.0513 7.07825 14.9964 6.98998 14.918 6.98998C14.7742 6.98998 14.0722 7.34712 13.9655 7.32842L13.8146 7.12325L13.9343 6.86139L13.3973 6.82749C13.138 6.05009 13.1315 5.21424 13.0242 4.40293L12.2255 2.36065C12.2232 3.07492 12.769 3.67054 12.9175 4.33338C13.0472 4.91321 13.1291 5.8233 13.2134 6.43645C13.2376 6.60947 13.2741 6.8421 13.2853 7.0081C13.2906 7.08818 13.336 7.36933 13.2276 7.38745L13.1674 6.45282L12.9328 6.62759C12.8373 6.0045 12.8603 5.36563 12.7389 4.7437C12.6452 4.26265 12.4153 3.40985 12.2408 2.95802C12.2126 2.88379 12.2061 2.78617 12.107 2.76981C12.2367 3.57293 12.5892 4.3287 12.6947 5.13825C12.7725 5.73211 12.8226 6.77664 12.7566 7.36057C12.7466 7.44824 12.7442 7.5406 12.6369 7.56281C12.812 5.963 12.4377 4.33864 11.9685 2.81832L11.7528 2.36065C11.7239 2.574 11.8353 2.78091 11.8483 2.98315C11.8565 3.10298 11.7923 3.23157 11.8094 3.38062C11.9031 4.18257 12.1707 4.98277 12.1047 5.80869C12.0452 5.88993 11.8848 5.38375 11.8748 5.30717C11.7793 4.57478 11.8447 3.82894 11.6367 3.08837C11.6143 3.00829 11.629 2.90717 11.5164 2.88671C11.6072 3.75354 11.7392 4.61453 11.81 5.48896C11.8153 5.55325 11.853 5.70698 11.7522 5.69237C11.7552 5.59943 11.7251 5.51994 11.6838 5.43869C11.5677 5.20956 11.4392 4.76007 11.4044 4.48827C11.3272 3.87863 11.4121 3.04453 11.4186 2.40507C11.4192 2.32792 11.4699 2.27648 11.339 2.24433L11.2789 5.8385L11.0443 7.15423V6.71702C11.2695 5.51994 11.164 4.27668 11.2789 3.06323C11.1987 3.09597 11.1793 3.36484 11.1687 3.45018C11.1304 3.75646 11.118 4.09782 11.1021 4.40761L10.4012 3.66879C10.2892 3.52675 10.3859 3.42972 10.4549 3.29762C9.97801 3.30814 10.3747 2.88437 10.3364 2.8306L10.1195 2.68505C10.383 2.23147 10.2916 2.01929 10.1601 1.5435C10.2916 1.62592 10.4118 1.45758 10.5338 1.48973C10.8003 1.55928 10.6205 2.7663 10.8963 3.00361C10.9753 3.00653 11.0343 2.37994 11.0431 2.27356C11.0561 2.12041 10.9553 1.36464 11.2223 1.51252C11.3425 1.61306 11.3844 1.84628 11.5736 1.83576C11.5253 1.65923 11.3361 1.17234 11.4257 1.01686C11.507 0.875403 11.7428 1.17643 11.8147 1.21734C11.8707 1.24891 12.1949 1.39036 12.222 1.36815C11.9379 0.835656 11.731 0.714078 11.5848 0.728691C11.4097 0.745642 11.24 0.964249 11.151 0.906382C11.1192 0.88534 11.1127 0.839164 11.1127 0.803508C11.115 0.759085 11.1209 0.713493 11.1327 0.666148C11.2129 0.347004 11.4987 0.172235 11.609 0.112615C11.6538 0.0880654 11.7009 0.0927415 11.7233 0.117876C11.7257 0.120214 11.7404 0.138333 11.7375 0.160545C11.7316 0.200292 11.6732 0.221919 11.6549 0.228933C11.5276 0.28037 11.428 0.401364 11.3685 0.473259C11.2812 0.578471 11.2335 0.712909 11.2583 0.731613C11.2824 0.749149 11.3549 0.634584 11.5029 0.577302C11.642 0.523527 11.7734 0.549245 11.8442 0.563858C12.156 0.628739 12.1966 0.843255 12.486 0.940284C12.578 0.971263 12.7236 0.99932 12.9299 0.958404C12.8432 0.726353 12.7218 0.615295 12.6252 0.557429C12.334 0.38266 11.9939 0.520604 11.8589 0.327131C11.81 0.257574 11.8088 0.174573 11.8141 0.11846C11.9096 -0.210036 13.0643 0.223088 13.2959 0.332391C14.0551 0.690113 14.5732 1.35587 15.2075 1.71009C15.57 1.91291 16.0722 1.9661 16.4853 2.1964C17.4573 2.73707 18.2289 3.97682 18.8826 4.8495C19.4549 4.7402 20.629 4.80859 20.4163 5.65554C20.3992 5.72393 20.2719 5.65496 20.2978 5.75082L20.4145 5.77829L20.1958 6.24941C20.6326 6.61414 20.7811 7.25945 20.3302 7.68322C20.1451 7.85682 19.9506 7.8574 19.7756 8.00996C19.7921 8.24493 19.7131 8.46939 19.706 8.70085C19.683 9.4613 19.8186 10.2545 19.7673 11.0412C19.6783 12.402 19.0623 13.7481 18.1116 14.7184C17.719 15.1194 17.2139 15.5017 16.7624 15.8354C16.8425 15.9073 16.9993 15.777 17.0742 15.7355C17.2846 15.6197 17.5045 15.4473 17.699 15.3029C18.3538 14.8172 18.9604 14.2151 19.3783 13.5196C19.5492 13.2349 19.5769 12.9245 19.7384 12.6504C20.2182 13.2524 20.6556 13.8896 20.9485 14.6056C21.3429 15.5706 21.3912 16.6672 21.2892 17.6942C20.8972 17.9999 20.5884 18.4131 20.1764 18.6948C19.9182 18.8714 19.5469 18.9807 19.3235 19.1934C18.8773 19.6184 18.612 20.3554 18.4134 20.9212C18.4028 21.0931 18.48 20.9709 18.5207 20.9107C18.8501 20.425 19.2038 19.9539 19.5981 19.5243C20.1015 19.021 20.8577 18.7393 21.1831 18.0852C21.3205 17.9893 21.6158 18.7743 21.7112 18.8696C20.1681 19.7429 20.0514 21.5052 19.65 23.053C19.8274 22.8548 19.9872 22.5491 20.1103 22.3118C20.4687 21.6174 20.8312 19.9363 21.3293 19.5459C21.5568 19.3676 21.7018 19.4459 21.8327 19.1806C21.9099 19.0233 22.0997 19.436 22.2105 19.5482C22.3637 19.7037 22.6879 19.9895 22.8618 20.1298C22.9691 20.2163 23.3894 20.3794 23.3605 20.5057C22.4239 21.428 21.6588 22.5158 21.5945 23.8707C21.7808 23.6761 21.8362 23.34 21.9476 23.0816C22.0802 22.7747 22.2217 22.4685 22.3944 22.1803C22.7522 21.5847 23.311 21.2492 23.5951 20.622C23.6346 20.5986 24.293 20.9464 24.3784 21.0054C24.4321 21.0422 24.4574 21.1229 24.5181 21.172C24.6001 21.2381 24.7403 21.279 24.7987 21.3561C25.1305 21.7963 24.2989 23.1664 24.168 23.6468C23.9617 24.4026 24.1698 25.1461 24.4232 25.8575C24.5234 25.8721 24.4828 25.7207 24.4833 25.6517C24.4875 25.2753 24.3896 24.7761 24.4279 24.4277C24.4421 24.2986 24.5947 24.025 24.6307 23.8713C24.8128 23.0933 24.9926 22.3095 25.1594 21.5326L28.3712 23.081C27.9639 23.527 27.6144 23.9461 27.5472 24.5709L27.9309 24.2214C28.1308 23.9993 28.5935 23.2394 28.9241 23.3522C28.9583 23.3639 29.3179 23.7146 29.4741 23.8006C29.6497 23.8964 30.1136 24.0285 30.2032 24.1296C30.459 24.419 30.2881 25.6003 30.8816 24.4523L33.4132 25.6225C33.7551 25.9217 33.6708 26.3835 33.6779 26.7927C33.8577 26.6728 34.094 26.4344 34.14 26.2222C34.1742 26.0644 33.9538 25.8247 34.3599 26.0281C34.7271 26.2123 35.58 26.8657 35.8883 27.1422C36.0197 27.2597 36.4335 27.6431 36.4913 27.7723C36.6775 28.1879 36.6675 28.9665 36.684 29.4224L37.0282 28.472C36.6463 27.8454 37.4933 28.5725 37.6577 28.7198C38.0397 29.0623 38.3715 29.5206 38.7523 29.8555C39.3801 30.4067 39.7166 30.3483 39.9536 31.2946C40.0644 31.7365 40.0479 32.1638 39.9235 32.6016C39.8422 32.888 39.6147 33.12 39.6895 33.3977C39.8098 33.4216 39.828 33.341 39.877 33.2626C40.2459 32.6688 40.5018 31.7312 40.2489 31.0602C40.1947 30.9158 40.0396 30.8153 40.0432 30.651C40.1829 30.6563 40.2872 30.7422 40.4304 30.7633C40.7511 30.81 41.4071 30.7054 41.6329 30.7983C41.9948 30.948 42.4917 32.7769 42.1869 32.9949C42.0962 33.0598 41.8533 33.0697 41.7401 33.1235C40.3426 33.7846 39.0683 33.4596 37.7733 33.9828C37.3613 34.1493 36.987 34.4761 36.5343 34.5082C36.0386 34.5433 35.6165 34.1791 35.1739 34.1628C34.8526 34.1511 34.5214 34.3212 34.219 34.3738C33.1716 34.5562 32.077 34.0541 30.9924 34.0973C30.4301 34.1195 29.8006 34.2931 29.2289 34.3358C28.2663 34.4083 27.2855 34.2604 26.3389 34.334C25.7147 34.3831 25.0681 34.6035 24.4468 34.6789C23.6976 34.7707 22.7003 34.8578 21.9883 34.6129C21.8781 34.5749 21.6446 34.4515 21.6158 34.3364C21.5833 34.209 21.6818 33.6297 21.749 33.514C21.7702 33.4777 21.8533 33.4584 21.8893 33.4123C21.9405 33.3451 21.97 33.2276 22.0231 33.1802C22.0926 33.1188 22.1834 33.1352 22.2417 33.1054C22.1616 33.3392 21.9052 33.3696 21.8427 33.6741C21.8144 33.8138 21.7891 34.14 21.9464 34.216C21.9788 33.5572 22.5936 33.1007 23.1925 32.9669C23.9464 32.798 24.7168 32.7904 25.46 32.8658C26.0347 32.9242 26.6183 32.6881 27.1806 32.5969C27.9486 32.4724 28.7597 32.4244 29.5177 32.2842C29.6591 32.2579 29.8189 32.0971 29.9326 32.0831C30.2356 32.0463 30.7791 32.2596 31.1139 32.2865C31.1787 32.2918 31.3331 32.3298 31.3184 32.2298C30.9359 32.1585 30.5574 32.0626 30.1743 31.9896C30.0918 31.9738 30.0305 31.8972 29.9456 31.8943C29.4517 31.875 27.8767 32.3841 27.2649 32.5057C26.6365 32.6302 25.9145 32.8003 25.2779 32.7547C23.8992 32.6553 23.5515 32.4426 22.2411 33.1066L22.24 33.1089ZM16.0509 2.1888L15.4255 2.01929L14.0469 1.89655L14.7512 2.10346C15.0135 2.27122 15.2334 2.9323 15.4332 3.12227C15.6118 3.29178 16.4571 3.42738 15.8152 3.03635L15.2263 2.13035C15.2599 2.09586 15.9991 2.66109 16.0509 2.18939V2.1888ZM15.1073 3.12344L15.0247 2.70902L14.1347 2.18822C14.0239 2.69791 14.7683 2.89782 15.1073 3.12402V3.12344ZM16.4629 2.42261C16.1623 2.36708 15.8735 2.58043 16.1977 2.8306C16.269 2.78734 16.5284 2.48164 16.4629 2.42261ZM13.2211 3.35724L13.4568 2.48047C13.2346 2.59855 12.9794 3.18773 13.2211 3.35724ZM15.1662 3.6495C14.8473 3.8494 13.8447 3.7062 13.7079 3.37185C13.6083 3.1287 13.6413 2.85339 13.6702 2.60322C13.6808 2.51087 13.7451 2.41267 13.6048 2.53892C13.481 2.82534 13.3342 3.02641 13.438 3.34789C13.4928 3.51798 13.9419 3.81141 14.1247 3.89558C14.4459 4.04346 15.0501 4.06158 15.1662 3.65008V3.6495ZM16.2278 3.00595L15.8753 2.56698C15.4975 2.50152 15.9855 3.11525 16.2278 3.00595ZM14.5184 3.23976L13.8706 2.59738C13.8671 2.77565 13.8441 2.97088 13.9573 3.12461L14.5184 3.23976ZM16.9911 3.06206C17.0536 2.97322 16.8526 2.72597 16.7883 2.72538C16.7241 2.7248 16.068 3.19767 16.1694 3.29821C16.4889 3.40576 16.7023 3.14097 16.9917 3.06148L16.9911 3.06206ZM12.69 2.94867L12.5739 3.03518C12.8356 3.47122 13.2069 4.02066 13.3242 4.51224C13.4256 4.93542 13.247 5.5252 13.8966 5.4007C13.9885 5.38316 14.0545 5.29607 14.1376 5.2873C14.397 5.261 14.7442 5.40654 15.112 5.31945C15.254 5.28555 15.7061 4.90386 15.7556 4.78871C15.8694 4.52568 15.4497 4.91263 15.4238 4.92724C15.1361 5.08448 14.9004 5.14117 14.5744 5.08448C14.2932 5.03538 14.1706 4.85476 13.8706 5.03245C13.8182 5.06343 13.6832 5.35627 13.5199 5.22476C13.4887 5.19962 13.4262 4.57712 13.3926 4.44502C13.2529 3.90084 12.8916 3.46655 12.6906 2.94808L12.69 2.94867ZM16.9934 3.76698C16.4983 3.85057 16.1116 3.61443 15.6383 3.6495C15.5982 4.02242 16.3981 3.96338 16.6557 3.92773C16.7241 3.91837 16.9769 3.85408 16.9934 3.76698ZM17.8057 3.95403C17.7974 3.94059 17.6188 3.83303 17.5829 3.8494C17.0571 4.38306 18.0185 4.30824 17.8057 3.95403ZM13.9467 4.15744C13.8924 4.11711 13.8783 3.9739 13.7751 3.95403C13.7109 3.94175 13.4869 4.0119 13.3985 4.02943C13.5146 4.14867 13.7026 4.14633 13.8323 4.24219C13.9526 4.33104 13.9956 4.50172 14.1424 4.5777C14.2532 4.6344 14.7159 4.69577 14.8438 4.69227C15.0878 4.68584 15.3418 4.49003 15.3919 4.25271C15.2363 3.80439 14.9752 4.33338 14.7218 4.34916C14.5567 4.3591 14.0828 4.25914 13.9467 4.15744ZM17.7603 4.76007C18.0391 4.77351 18.3521 4.72091 18.3485 4.38365C18.2849 4.30532 18.2778 4.27376 18.1729 4.3211C17.9748 4.41053 17.6866 4.51575 17.7603 4.76007ZM16.994 4.3515C16.6687 4.48477 16.3003 4.31175 16.0215 4.34974C15.9442 4.36026 15.9124 4.32286 15.9319 4.43917C15.9914 4.79397 16.885 4.69928 16.9934 4.3515H16.994ZM18.1741 6.68896C18.4906 6.63869 19.0865 6.50776 19.291 6.24882C19.3629 6.15764 19.3429 6.05535 19.3853 5.99164C19.5675 5.72159 20.006 5.32003 19.65 5.01901C19.2427 4.67532 18.2112 5.28672 18.0709 5.68126C18.0008 5.87941 17.9884 6.20674 17.933 6.42125C18.0927 6.48847 18.1923 6.47211 18.1741 6.68838V6.68896ZM16.3834 5.8496C16.5419 5.68769 16.6928 5.34517 16.6704 5.11136C16.2077 5.49773 15.9613 5.81219 15.3136 5.87006C14.5567 5.93728 14.7442 5.75433 13.9844 6.07172C13.9355 6.09217 13.3113 6.19213 13.458 6.33825C13.8742 6.51361 14.2325 6.28915 14.6074 6.2763C15.0955 6.25993 15.3194 6.37216 15.8588 6.17634C15.9949 6.12666 16.2849 5.95131 16.3846 5.8496H16.3834ZM13.7521 12.1243C14.555 12.1419 15.2976 11.607 15.9914 11.2768C16.4859 11.0412 16.7188 11.0728 17.2015 10.6648C17.3665 10.5251 17.6312 10.2802 17.7002 10.0785L16.4594 11.0395L13.7521 12.1238V12.1243ZM13.0448 14.8143C12.647 14.9154 12.087 14.9867 11.728 15.1737C11.5453 15.269 10.9576 15.6712 10.7773 15.8091C10.7036 15.8652 10.2132 16.3241 10.2751 16.3919C11.0985 15.6413 12.2868 15.6934 13.0448 14.8143ZM19.9412 15.2819C19.0806 15.4233 18.3373 16.1358 17.9141 16.8659C17.396 17.7596 17.1661 18.5586 16.4865 19.4249C16.2726 19.6973 16.0274 19.9112 15.8146 20.1614C15.7592 20.2268 15.6719 20.2567 15.6973 20.366L17.0188 19.1928C17.775 18.053 18.1322 16.7508 19.1944 15.8266C19.4107 15.6384 19.775 15.532 19.9406 15.2813L19.9412 15.2819ZM22.392 27.6484C23.3846 26.4057 23.3446 25.5255 23.5685 24.0496C23.6316 23.6346 23.7961 23.2874 23.7719 22.8799C23.0799 23.4668 23.2986 24.4727 23.0481 25.2887C22.8459 25.9481 22.3514 26.7979 21.9942 27.4C21.7036 27.8892 21.0888 28.6275 20.8855 29.1062C20.8743 29.1325 20.8701 29.202 20.9137 29.1927C21.0694 29.1448 22.2152 27.8705 22.3926 27.6484H22.392ZM25.1871 27.4976V26.5916C25.1871 26.3794 25.3144 25.9784 25.4506 25.8008C25.7559 25.4039 26.3689 25.0099 26.8193 24.8199C26.9041 24.7843 27.101 24.7182 27.1317 24.6341C26.4792 24.5207 26.0583 24.834 25.5874 25.2215C24.9466 25.7481 24.3955 26.4712 24.6148 27.3339C24.7952 28.0429 25.6274 29.129 26.1055 29.7135C26.2251 29.8602 26.6813 30.4237 26.8087 30.478C27.0097 30.5634 26.7992 30.284 26.7933 30.2594C26.6519 29.6521 26.6224 29.3119 26.8546 28.7134C27.1311 28.0014 27.592 27.8956 28.2887 27.739C29.4063 27.4877 30.3995 27.5251 31.4923 27.8787C32.1554 28.0932 32.7867 28.455 33.4392 28.6953C33.0443 28.2195 32.3747 27.8436 31.787 27.6449C30.1507 27.0914 27.572 26.9236 26.3395 28.3194C26.1031 28.5871 26.0453 28.9548 25.8644 29.25C25.4948 28.7338 25.8119 27.8226 26.0624 27.2872C26.811 25.685 28.5363 26.0474 29.9273 26.5086C30.225 26.6074 30.5197 26.8225 30.8457 26.854C30.228 26.4127 29.2813 25.7622 28.5103 25.6932C27.516 25.6038 26.501 26.0743 25.753 26.6857L25.1871 27.4982V27.4976ZM13.517 28.3159C13.847 28.0412 14.664 27.7507 14.8585 27.3965C15.0141 27.1124 15.0513 26.6752 15.1131 26.3578L14.99 24.8094L14.8184 25.3109C14.7595 25.8387 14.8137 27.0142 14.5638 27.4549C14.4654 27.6285 13.3873 28.178 13.5176 28.3165L13.517 28.3159ZM35.0312 30.4202C35.2806 30.2039 35.1191 29.6731 35.0324 29.3955C34.6799 28.2686 33.9644 27.4123 33.0543 26.681C31.6956 25.5892 30.0163 24.9123 28.2522 24.9263C28.2333 25.0239 28.274 25.0491 28.3541 25.0877C28.6901 25.2484 29.3868 25.3092 29.7841 25.4232C31.787 26.0001 33.349 26.9014 34.4029 28.7338C34.6864 29.2272 34.9982 29.8532 35.0312 30.4202ZM20.177 29.368C20.3019 29.3949 20.3113 29.3049 20.3638 29.2324C20.6438 28.8461 20.8277 28.3668 21.0729 27.9483C21.2285 27.6829 21.5049 27.4479 21.5315 27.1469C20.8489 27.687 20.378 28.5392 20.177 29.368ZM33.7716 29.3891C32.9482 28.5643 30.4914 28.0652 29.3691 28.2826C29.2483 28.306 28.4832 28.5222 28.409 28.562C28.1956 28.676 27.4729 29.4721 27.3203 29.7012C27.0562 30.0969 26.7786 30.6545 27.427 30.8293C27.3574 30.7031 27.3545 30.6049 27.381 30.4646C27.4942 29.8608 28.5056 28.8817 29.0957 28.7093C29.246 28.6655 29.3061 28.7204 29.391 28.7052C29.856 28.6228 31.1109 28.6286 31.553 28.8127C31.6709 28.8618 31.7516 28.984 31.83 29.0056C31.9509 29.0395 32.0882 28.9986 32.2167 29.0314C32.9688 29.2219 33.7763 29.8999 34.2426 30.5002C34.3386 30.6236 34.4218 30.9024 34.5585 31.0047C34.5055 30.5108 34.1194 29.7369 33.7716 29.3891ZM30.7278 29.8356H29.8731C29.5495 29.8356 28.7296 30.1624 28.4585 30.3617C28.3235 30.4611 27.9799 30.8007 28.0164 30.9743C28.0683 31.0432 28.4019 31.0543 28.4502 31.0456C28.5386 31.0304 29.2642 30.5049 29.4505 30.4096C29.8843 30.1899 30.3665 30.125 30.7278 29.8351V29.8356ZM23.7725 29.8947L23.5338 29.9788C23.0127 30.5108 22.6184 31.1601 22.181 31.7639L22.929 31.2168C22.9261 31.0485 23.0522 31.0573 23.1229 30.9766C23.3988 30.6592 23.677 30.3114 23.7725 29.8947ZM33.3796 30.5376C32.5798 30.4523 31.7481 30.2547 30.9476 30.3751C30.5987 30.4278 29.9038 30.5844 29.5872 30.7212C29.3214 30.8357 28.999 31.0783 28.9011 31.3554C29.0585 31.3121 29.2566 31.4232 29.3898 31.4033C29.523 31.3834 29.9238 30.9871 30.1955 30.9152C30.4513 30.8468 30.8127 30.8632 31.0844 30.8048C31.316 30.7545 31.5548 30.637 31.8212 30.5932C32.324 30.5108 32.6823 30.5563 33.1751 30.5955C33.2399 30.6008 33.395 30.6382 33.3802 30.5382L33.3796 30.5376ZM35.3837 32.6998C35.2252 32.0147 34.3033 31.2297 33.6195 31.0888C33.2117 31.0047 32.3116 31.0415 31.9444 31.2461C31.7888 31.3326 31.6809 31.5851 31.4946 31.6774C31.4823 31.8294 31.5188 31.7371 31.5984 31.7219C31.7917 31.6845 31.9131 31.5857 32.0705 31.5465C33.0295 31.308 33.9703 31.453 34.7654 32.0568C34.9929 32.2298 35.112 32.5601 35.3843 32.6992L35.3837 32.6998ZM11.9833 32.3496C11.8724 32.3245 11.8436 32.4116 11.777 32.4659C11.4209 32.7576 11.0655 33.338 11.0997 33.8103C11.2565 33.8396 11.2023 33.7776 11.2435 33.6934C11.3148 33.549 11.3573 33.3959 11.4428 33.2457C11.5058 33.1346 12.0269 32.3935 11.9827 32.3496H11.9833ZM2.72918 32.7009C2.36491 32.5636 1.85977 32.7728 1.52025 32.933C1.02926 33.165 0.539439 33.5642 0.607814 34.161L0.805273 33.6852C0.981514 33.4088 1.25383 33.2112 1.5509 33.0803L2.72859 32.7003L2.72918 32.7009ZM3.96758 32.9341C3.42353 32.8482 3.08225 32.7413 2.61719 33.0849C2.17924 33.4082 1.5792 33.9874 1.78727 34.5708C1.98767 34.617 1.87981 34.3487 1.91812 34.2037C2.08906 33.5584 2.90601 33.0838 3.53316 32.9967C3.70174 32.9733 3.90392 33.1025 3.96758 32.9347V32.9341ZM10.2739 32.9341C9.5607 32.9371 9.23356 33.4333 9.27305 34.1026L9.62671 33.3141L10.2745 32.9341H10.2739ZM4.60004 33.2422C4.09843 32.8318 2.77103 33.8606 2.96613 34.5123C3.1182 34.4106 3.12822 34.2043 3.23432 34.0482C3.50428 33.6531 4.17682 33.1633 4.67431 33.4012C4.68138 33.3953 4.61477 33.255 4.59945 33.2422H4.60004ZM24.656 33.2264C23.8939 33.1814 22.6013 33.4164 22.6532 34.3943L22.8394 33.9664C23.0062 33.6975 23.7843 33.4362 24.1102 33.3562C24.2712 33.317 24.57 33.3994 24.656 33.2264Z" fill="#171512"/>
<path d="M12.2785 7.97504C12.1747 7.9879 12.2225 7.84294 12.2195 7.77105C12.1836 6.91707 12.2631 6.052 12.2189 5.19919C12.2065 4.96714 12.1836 4.60942 12.1535 4.38731C12.1052 4.03368 11.9531 3.68005 11.923 3.32934C11.9189 3.28258 11.9053 3.11599 11.9837 3.21185C12.282 4.21254 12.4995 5.22959 12.5142 6.27937C12.3793 6.36997 12.3958 6.09584 12.3386 6.16305C12.3333 6.1689 12.279 6.301 12.279 6.3086V7.97446L12.2785 7.97504Z" fill="#171512"/>
<path d="M11.8659 6.95216C11.8582 7.00067 11.7716 7.14797 11.7486 7.0977C11.6832 6.94105 11.8069 6.69322 11.8069 6.60145V5.75391H11.8659C11.8252 6.12332 11.9219 6.59794 11.8659 6.95216Z" fill="#171512"/>
<path d="M19.1742 5.28687L18.8211 5.49144L19.1742 5.63816L18.8801 5.69661L19.028 5.87138L18.9697 5.98653L18.7038 5.93041L18.8801 6.16363L18.4097 5.98828L18.4675 6.28054L18.2618 6.04673L18.1739 6.2215C18.0678 5.63757 18.7139 5.38448 19.1748 5.28687H19.1742Z" fill="#171512"/>
<path d="M35.7373 5.52017C35.2133 4.983 34.7046 5.00638 34.0285 5.22732C34.167 4.93273 34.1552 4.54695 34.2448 4.24944C34.437 3.60939 35.0129 2.67885 35.4431 2.15922C35.9053 1.60101 36.8318 0.971492 37.5975 0.959217C37.8398 0.955125 38.0944 1.06501 38.2365 1.25966C38.5494 1.68869 38.5294 2.04992 38.2382 2.47544C37.7195 3.23414 36.7717 3.6468 36.2182 4.50545C36.0396 4.7831 35.8758 5.21154 35.7373 5.51958V5.52017Z" fill="#171512"/>
<path d="M37.1295 11.0953C37.5751 11.6529 37.8551 12.0778 38.3967 12.5571C39.0109 13.1001 39.7012 13.5321 40.3937 13.967C39.7135 13.9944 39.1689 14.5462 39.1559 15.2237L38.9809 15.1927C38.794 14.9793 37.7584 14.4533 37.6941 14.2481C37.5433 13.7641 38.0136 12.9803 38.5671 12.9429L38.2164 12.4461C37.4755 12.4069 36.8919 12.7559 36.8289 13.528C36.5076 13.1615 36.1068 12.7477 35.8427 12.3432C35.6559 12.0568 35.6023 11.8358 35.4661 11.5477C35.416 11.4413 35.1832 11.1607 35.2203 11.0841C35.2244 11.0754 35.3058 11.0818 35.3229 11.0315C35.383 10.8503 35.3352 10.7077 35.4761 10.492C35.6276 10.2594 35.8928 10.1559 36.1233 10.025L36.0927 9.72925C36.2265 9.77776 36.1976 9.93733 36.2683 10.0513C36.5017 10.4266 36.8548 10.7516 37.1301 11.0958L37.1295 11.0953Z" fill="#171512"/>
<path d="M34.4411 5.57922L34.2124 5.7914L34.3014 6.04157C34.7647 5.87849 35.0954 6.11522 35.5021 6.27947L35.3258 5.89954C35.9683 5.84401 35.6394 6.45833 35.6182 6.833C35.597 7.20767 35.5946 8.01372 35.6506 8.35507C35.6795 8.53218 36.0821 9.56677 36.0331 9.61119C35.5999 9.59599 34.9604 9.78771 34.8537 10.2542C34.7694 10.2746 34.757 10.2378 34.7051 10.1975C34.3144 9.89292 33.7727 8.46204 33.8122 7.96286C33.8564 7.40699 34.0043 6.80728 34.0697 6.26427C34.1145 5.89135 33.91 5.65813 34.4417 5.57922H34.4411Z" fill="#171512"/>
<path d="M44.9335 30.5958C44.7526 29.9148 44.0671 29.4233 43.3998 29.2508L44.4408 26.7941C45.1858 26.7795 45.78 27.0583 46.2161 27.651C46.0488 28.7119 45.678 29.8032 44.933 30.5958H44.9335Z" fill="#171512"/>
<path d="M44.4025 25.9781C44.4585 25.2404 44.3253 24.397 44.4054 23.6722C44.4243 23.5003 44.5917 23.2969 44.5263 23.0613C45.1576 22.9287 45.8625 23.0847 46.406 23.4354L46.2398 23.5482C46.5079 24.5127 46.4997 25.5163 46.406 26.5035C46.3488 26.5643 45.4476 25.9775 45.2566 25.9775H44.4019L44.4025 25.9781Z" fill="#171512"/>
<path d="M46.1702 22.2957C45.5831 22.1192 45.0072 21.952 44.4608 22.329C44.3706 22.2875 44.024 21.3856 43.9474 21.2003C43.9215 21.1384 43.8419 21.1372 43.8177 21.0811C43.6722 20.745 43.6397 20.2481 43.46 19.8998C43.5655 19.8612 43.6138 20.0032 43.6663 20.0026C43.7223 20.0021 44.3329 19.5257 44.6247 19.4474C44.7608 19.4105 45.4027 19.3708 45.4953 19.4263C45.7782 19.5976 46.0269 20.3785 46.0947 20.7058C46.1973 21.2021 46.1425 21.7842 46.1713 22.2957H46.1702Z" fill="#171512"/>
<path d="M43.6745 16.9386C44.0535 17.3249 44.353 17.8107 44.7226 18.2081L45.2271 18.9639C44.6825 18.5366 44.0052 18.93 43.5838 19.3497C43.4606 19.4724 43.4417 19.6875 43.2837 19.6647C42.9602 18.7342 42.3442 17.9135 41.5261 17.3571C41.6404 16.879 42.5729 16.091 43.0415 16.3663C43.1317 16.4195 43.5755 16.8369 43.6751 16.9386H43.6745Z" fill="#171512"/>
<path d="M44.1278 31.6098C43.7005 32.0535 43.249 32.5059 42.6342 32.6999C42.656 31.9243 42.547 31.0709 42.0442 30.4513C42.4662 30.252 42.7427 30.0351 43.0291 29.6692C43.9593 29.619 44.3571 30.1421 44.696 30.9172C44.5917 31.2194 44.3247 31.4052 44.1278 31.6098Z" fill="#171512"/>
<path d="M42.6342 15.9824C41.9605 15.762 41.3298 16.4138 41.219 17.0351C41.1394 17.1023 40.6791 16.706 40.6048 16.6219C40.4616 16.4588 40.4321 16.0812 40.1586 16.2174C40.0655 15.6942 40.0702 15.3044 40.4504 14.8993C40.6071 14.7321 40.8553 14.6614 40.9243 14.4054C40.2606 14.6748 39.565 15.0156 39.8627 15.8661C39.1059 15.191 40.2712 14.527 40.8264 14.2394L41.2496 14.5205L42.6336 15.9824H42.6342Z" fill="#171512"/>
<path d="M37.5651 13.061L37.4166 13.2931L37.2415 13.8782C37.0063 13.7279 37.4171 12.9242 37.5645 13.061H37.5651Z" fill="#171512"/>
<path d="M9.64666 2.14684C9.69517 2.14684 9.73449 2.10785 9.73449 2.05975C9.73449 2.01165 9.69517 1.97266 9.64666 1.97266C9.59816 1.97266 9.55884 2.01165 9.55884 2.05975C9.55884 2.10785 9.59816 2.14684 9.64666 2.14684Z" fill="#171512" stroke="#171512" stroke-miterlimit="10" stroke-linecap="round"/>
<path d="M9.91509 1.96859C9.93926 1.94462 9.91407 1.88078 9.85882 1.826C9.80358 1.77121 9.7392 1.74623 9.71503 1.7702C9.69086 1.79417 9.71605 1.85801 9.77129 1.91279C9.82654 1.96758 9.89092 1.99256 9.91509 1.96859Z" fill="#171512" stroke="#171512" stroke-miterlimit="10" stroke-linecap="round"/>
<path d="M9.58193 2.62879C9.60334 2.60756 9.58711 2.55704 9.54567 2.51595C9.50424 2.47486 9.4533 2.45877 9.43189 2.47999C9.41048 2.50122 9.42672 2.55174 9.46815 2.59283C9.50958 2.63392 9.56053 2.65002 9.58193 2.62879Z" fill="#171512" stroke="#171512" stroke-miterlimit="10" stroke-linecap="round"/>
<path d="M9.43209 2.8214C9.49068 2.8214 9.53818 2.79602 9.53818 2.76471C9.53818 2.73339 9.49068 2.70801 9.43209 2.70801C9.37349 2.70801 9.32599 2.73339 9.32599 2.76471C9.32599 2.79602 9.37349 2.8214 9.43209 2.8214Z" fill="#171512" stroke="#171512" stroke-miterlimit="10" stroke-linecap="round"/>
<path d="M9.44272 3.03657C9.49545 3.03657 9.53821 3.00909 9.53821 2.97519C9.53821 2.9413 9.49545 2.91382 9.44272 2.91382C9.38998 2.91382 9.34723 2.9413 9.34723 2.97519C9.34723 3.00909 9.38998 3.03657 9.44272 3.03657Z" fill="#171512" stroke="#171512" stroke-miterlimit="10" stroke-linecap="round"/>
<path d="M9.40381 3.24171C9.46078 3.24171 9.50696 3.21763 9.50696 3.18793C9.50696 3.15823 9.46078 3.13416 9.40381 3.13416C9.34684 3.13416 9.30066 3.15823 9.30066 3.18793C9.30066 3.21763 9.34684 3.24171 9.40381 3.24171Z" fill="#171512" stroke="#171512" stroke-miterlimit="10" stroke-linecap="round"/>
<path d="M9.39318 3.44688C9.45601 3.44688 9.50694 3.42516 9.50694 3.39837C9.50694 3.37157 9.45601 3.34985 9.39318 3.34985C9.33035 3.34985 9.27942 3.37157 9.27942 3.39837C9.27942 3.42516 9.33035 3.44688 9.39318 3.44688Z" fill="#171512" stroke="#171512" stroke-miterlimit="10" stroke-linecap="round"/>
<path d="M9.40911 3.67832C9.47291 3.67832 9.52464 3.65163 9.52464 3.6187C9.52464 3.58577 9.47291 3.55908 9.40911 3.55908C9.3453 3.55908 9.29358 3.58577 9.29358 3.6187C9.29358 3.65163 9.3453 3.67832 9.40911 3.67832Z" fill="#171512" stroke="#171512" stroke-miterlimit="10" stroke-linecap="round"/>
<path d="M9.51481 3.87535C9.56246 3.8281 9.58373 3.77259 9.56233 3.75136C9.54092 3.73013 9.48494 3.75123 9.43729 3.79848C9.38964 3.84573 9.36837 3.90124 9.38977 3.92247C9.41118 3.9437 9.46716 3.9226 9.51481 3.87535Z" fill="#171512" stroke="#171512" stroke-miterlimit="10" stroke-linecap="round"/>
<path d="M9.64434 4.04749C9.68693 4.00526 9.70055 3.9503 9.67477 3.92474C9.64899 3.89917 9.59357 3.91268 9.55098 3.95491C9.5084 3.99714 9.49478 4.0521 9.52056 4.07766C9.54634 4.10323 9.60176 4.08972 9.64434 4.04749Z" fill="#171512" stroke="#171512" stroke-miterlimit="10" stroke-linecap="round"/>
<path d="M9.80741 4.20367C9.86841 4.14318 9.8923 4.06879 9.86076 4.03752C9.82923 4.00625 9.75421 4.02993 9.69321 4.09042C9.63221 4.15091 9.60833 4.2253 9.63986 4.25657C9.6714 4.28785 9.74641 4.26416 9.80741 4.20367Z" fill="#171512" stroke="#171512" stroke-miterlimit="10" stroke-linecap="round"/>
<path d="M9.92259 4.37186C9.97761 4.3173 10.003 4.25402 9.97928 4.23051C9.95557 4.20699 9.89175 4.23216 9.83673 4.28672C9.78172 4.34127 9.75634 4.40456 9.78005 4.42807C9.80376 4.45158 9.86758 4.42641 9.92259 4.37186Z" fill="#171512" stroke="#171512" stroke-miterlimit="10" stroke-linecap="round"/>
<path d="M10.1347 4.61937C10.1627 4.61937 10.1854 4.5686 10.1854 4.50597C10.1854 4.44335 10.1627 4.39258 10.1347 4.39258C10.1067 4.39258 10.084 4.44335 10.084 4.50597C10.084 4.5686 10.1067 4.61937 10.1347 4.61937Z" fill="#171512" stroke="#171512" stroke-miterlimit="10" stroke-linecap="round"/>
<path d="M10.3581 4.74685C10.3994 4.74685 10.4329 4.71362 10.4329 4.67262C10.4329 4.63162 10.3994 4.59839 10.3581 4.59839C10.3167 4.59839 10.2832 4.63162 10.2832 4.67262C10.2832 4.71362 10.3167 4.74685 10.3581 4.74685Z" fill="#171512" stroke="#171512" stroke-miterlimit="10" stroke-linecap="round"/>
<path d="M10.5237 4.8731C10.5595 4.8731 10.5885 4.84431 10.5885 4.8088C10.5885 4.77329 10.5595 4.74451 10.5237 4.74451C10.4879 4.74451 10.4589 4.77329 10.4589 4.8088C10.4589 4.84431 10.4879 4.8731 10.5237 4.8731Z" fill="#171512" stroke="#171512" stroke-miterlimit="10" stroke-linecap="round"/>
<path d="M10.7176 5.00634C10.7492 5.00634 10.7748 4.98096 10.7748 4.94964C10.7748 4.91833 10.7492 4.89294 10.7176 4.89294C10.6861 4.89294 10.6605 4.91833 10.6605 4.94964C10.6605 4.98096 10.6861 5.00634 10.7176 5.00634Z" fill="#171512" stroke="#171512" stroke-miterlimit="10" stroke-linecap="round"/>
<path d="M10.9106 1.18295C11.0381 1.05649 11.1264 0.938988 11.1077 0.920499C11.0891 0.902009 10.9706 0.989536 10.8431 1.116C10.7156 1.24246 10.6273 1.35996 10.6459 1.37845C10.6646 1.39694 10.7831 1.30941 10.9106 1.18295Z" fill="#171512" stroke="#171512" stroke-miterlimit="10" stroke-linecap="round"/>
</g>
<defs>
<clipPath id="clip0_1_334">
<rect width="46.4655" height="35" fill="white"/>
</clipPath>
</defs>
</svg>
