<svg width="45" height="9" viewBox="0 0 45 9" fill="none" xmlns="http://www.w3.org/2000/svg">
<g clip-path="url(#clip0_1_330)">
<path d="M45 0H43.4036V8.79033H45V0Z" fill="#171512"/>
<path d="M41.4621 0V5.95864C41.4621 6.34482 41.4283 6.71817 41.36 7.07922C41.2918 7.44081 41.1536 7.76441 40.945 8.05165C40.7363 8.33942 40.4339 8.56888 40.0383 8.74111C39.6421 8.91335 39.1167 9 38.4608 9C37.9753 9 37.5624 8.92779 37.2218 8.78444C36.8811 8.64056 36.6003 8.44372 36.3789 8.19339C36.1575 7.9436 35.996 7.64567 35.8939 7.3012C35.7918 6.9562 35.7408 6.58338 35.7408 6.18061V5.71259H37.3372V6.16831C37.3372 6.66896 37.4243 7.05676 37.5985 7.33169C37.7727 7.60662 38.1035 7.74409 38.5884 7.74409C38.8437 7.74409 39.0545 7.70718 39.221 7.63337C39.3869 7.55902 39.5189 7.45043 39.6172 7.30708C39.7148 7.1632 39.7808 6.98508 39.8147 6.77113C39.8485 6.55824 39.8663 6.3154 39.8663 6.04475V0H41.4627H41.4621Z" fill="#171512"/>
<path d="M32.1646 0H30.4661L27.5186 7.40443H27.1302C26.148 7.40443 25.4067 7.1648 24.9268 6.69196C24.3996 6.17259 24.2892 5.45798 24.2892 4.95091V3.83995C24.2892 2.8135 23.8747 1.8491 23.1229 1.12433C22.3749 0.403304 21.3816 0.00481398 20.3241 0H20.2869C19.2287 0.00481398 18.2355 0.403304 17.4881 1.12433C16.7357 1.8491 16.3217 2.8135 16.3217 3.83995V4.95091C16.3217 5.60721 16.057 6.22394 15.5765 6.68662C15.096 7.14983 14.4562 7.40443 13.7759 7.40443C13.0957 7.40443 12.4559 7.14929 11.9754 6.68662C11.4948 6.22394 11.2307 5.60721 11.2307 4.95091V3.83995C11.2307 2.8135 10.8162 1.8491 10.0644 1.12433C9.3175 0.403304 8.32427 0.00481398 7.26612 0H7.22894C6.62024 0.00267443 6.03263 0.135861 5.50106 0.386188C5.4722 0.400095 5.44335 0.414002 5.41449 0.427909C5.40007 0.435398 5.38564 0.442351 5.37177 0.44984C5.32849 0.47177 5.28632 0.49477 5.2447 0.518305C5.09766 0.600677 4.95617 0.692678 4.82022 0.793772C4.68428 0.894865 4.55443 1.00505 4.4307 1.1238C3.67828 1.8491 3.26434 2.81297 3.26434 3.83941V4.95037C3.26434 5.60668 2.99911 6.22287 2.51914 6.68608C2.03862 7.14929 1.39885 7.4039 0.718566 7.4039C0.321274 7.4039 0 7.71413 0 8.09711C0 8.48009 0.321829 8.79032 0.718566 8.79032C1.78338 8.79032 2.78327 8.39076 3.53568 7.66599C4.28754 6.94069 4.70203 5.97629 4.70203 4.95037V3.83941C4.70203 3.18311 4.96671 2.56692 5.44723 2.10371C5.92776 1.6405 6.56697 1.38536 7.24781 1.38536C7.92864 1.38536 8.56786 1.6405 9.04783 2.10371C9.52836 2.56692 9.79303 3.18311 9.79303 3.83941V4.95037C9.79303 5.97629 10.207 6.94069 10.9594 7.66599C11.7068 8.38649 12.7006 8.78498 13.7576 8.78979C13.7637 8.78979 13.7698 8.78979 13.7765 8.78979C13.7832 8.78979 13.7887 8.78979 13.7948 8.78979C14.8524 8.78498 15.8456 8.38649 16.5936 7.66599C17.3455 6.94069 17.7594 5.97629 17.7594 4.95037V3.83941C17.7594 3.18311 18.0241 2.56692 18.5046 2.10371C18.9851 1.6405 19.6244 1.38536 20.3052 1.38536C20.986 1.38536 21.6252 1.6405 22.1058 2.10371C22.5863 2.56692 22.851 3.18311 22.851 3.83941V4.95037C22.851 6.04796 23.2133 6.98508 23.8986 7.66064C24.2715 8.02865 24.7331 8.31107 25.2719 8.50095C25.7729 8.67746 26.3423 8.77428 26.967 8.78872V8.79086H28.6139L29.4695 6.46357H33.1095L33.9652 8.79086H35.6764L32.1646 0ZM29.904 5.29377L31.2829 1.51373H31.3212L32.6873 5.29377H29.9035H29.904Z" fill="#171512"/>
</g>
<defs>
<clipPath id="clip0_1_330">
<rect width="45" height="9" fill="white"/>
</clipPath>
</defs>
</svg>
