<svg width="16" height="12" viewBox="0 0 16 12" fill="none" xmlns="http://www.w3.org/2000/svg">
<g clip-path="url(#clip0_10_55)">
<path d="M7.65829 11.3514L7.75389 11.2015C7.69665 11.0009 7.48962 11.0568 7.34471 11.0295C7.29072 11.0193 6.80908 10.8989 6.82633 10.8606C6.90975 10.8045 7.01042 10.8161 7.10379 10.7738C7.22415 10.7193 7.44213 10.5139 7.52474 10.4079C7.69624 10.1882 7.84522 9.89403 7.92194 9.62809L7.84522 9.63089L7.48577 10.0888C7.24241 10.2049 7.05771 10.402 6.8036 10.4974C6.73743 10.5223 6.58135 10.5798 6.52107 10.5618C6.45064 10.5405 6.25762 10.3586 6.25762 10.2794C6.40254 10.2798 6.41309 10.2205 6.51214 10.1493C6.96861 9.82108 6.95603 9.49442 7.24404 9.06836C7.27245 9.02627 7.32055 8.99822 7.35059 8.95313C7.55985 8.63929 7.75307 8.20101 7.75957 7.82425L7.65443 7.99059C7.40357 8.55292 6.65868 9.89944 5.97449 9.95956C5.93755 9.96276 5.92151 9.9818 5.89289 9.93851C5.8935 9.92469 6.08591 9.84713 6.12224 9.82469C6.42994 9.6355 7.25236 8.16694 7.25236 7.81423V7.47354C7.25236 7.47014 7.22496 7.44208 7.21197 7.44348C7.20344 7.91984 6.94771 8.33769 6.68872 8.72066C6.44252 9.08499 6.32156 9.21606 5.9753 9.47919C5.87381 9.55634 5.76523 9.72088 5.61909 9.72448C5.58378 9.72529 5.4553 9.70665 5.46626 9.65815C5.71449 9.39742 6.00838 9.186 6.19288 8.87236L6.3794 8.54571L6.02929 8.8912C5.89005 8.93669 5.80176 9.10764 5.64893 9.01666C5.74006 8.9405 5.90507 8.86876 5.9822 8.78459C6.21175 8.53488 6.51904 8.08538 6.61281 7.76393C6.65381 7.62345 6.65767 7.48817 6.70191 7.3527L6.66396 7.32304C6.57161 7.6491 6.42974 7.95732 6.24484 8.24209C6.03923 8.55913 5.80034 8.81806 5.46626 9.00624C5.59149 8.73609 5.76523 8.48438 5.81089 8.18458L5.42607 8.91665L5.38487 8.92587C5.43257 8.84531 5.45631 8.75954 5.44556 8.66555C5.44048 8.65853 5.42201 8.67677 5.41531 8.68539C5.35138 8.76755 5.29658 9.02628 5.25862 9.13189C5.22656 9.22107 5.13522 9.33109 5.15207 9.43029C5.15471 9.44552 5.33738 9.63691 5.36376 9.65835C5.40253 9.68941 5.45611 9.69302 5.48493 9.73751C5.48493 9.75955 5.24868 10.0325 5.21478 10.0906C5.14192 10.2155 5.09889 10.3606 5.01588 10.4954C4.93388 10.6283 4.77902 10.7856 4.71123 10.9161C4.57767 11.1728 4.58884 11.5197 4.27566 11.69C4.11451 11.7776 3.72156 11.8496 3.52915 11.8524C3.43335 11.8538 3.01991 11.8341 2.96268 11.7937C2.90036 11.6778 2.98926 11.4163 3.08161 11.3309C3.12911 11.287 3.3272 11.2053 3.39073 11.1948C3.44614 11.186 3.56975 11.2157 3.62455 11.2073C3.7238 11.192 3.92778 10.9135 3.96533 10.8205C3.98156 10.7802 4.05849 10.4277 4.01505 10.4287C3.82508 10.5826 3.67427 10.7722 3.47557 10.9181C3.1904 11.1277 2.87053 11.1922 2.5945 11.4109C2.46663 11.5121 2.32191 11.7101 2.18491 11.788C1.71464 12.0552 0.810425 12.0301 0.289818 11.9231C0.0545804 11.8746 -0.0272148 11.8375 0.00871014 11.583C0.0328631 11.4111 0.233596 11.2578 0.385618 11.1936C0.669973 11.0734 0.985585 11.1275 1.27948 11.0141C1.48508 10.9347 1.84291 10.5942 1.98986 10.4229C2.09621 10.299 2.18633 10.168 2.29979 10.0365C2.60972 9.67779 2.90625 9.29361 3.20502 8.92768C3.50581 8.55913 3.49993 8.64611 3.9087 8.47957C4.12222 8.3926 4.35989 8.2457 4.52105 8.08217C4.55393 8.0487 4.7027 7.88177 4.71569 7.85351C4.71975 7.84489 4.72077 7.82064 4.70575 7.82385C4.56245 7.97956 4.32864 8.13287 4.1344 8.22165C4.06052 8.25552 3.64708 8.41164 3.59938 8.36494C3.59796 8.17696 3.56812 8.10882 3.74044 8.01283C4.11065 7.80682 4.53099 7.7016 4.79566 7.34669C4.81454 7.32144 4.84214 7.29639 4.83747 7.26252C4.655 7.42585 4.48086 7.56332 4.23344 7.61784C4.09746 7.6479 3.94848 7.63387 3.80661 7.67735C3.72806 7.7014 3.65885 7.76834 3.60932 7.78317C3.56914 7.79519 3.58416 7.77355 3.57929 7.75271C3.55757 7.65972 3.56893 7.5495 3.54356 7.45511C3.5943 7.40601 3.63185 7.34228 3.68036 7.29198C3.84862 7.11763 4.04651 6.96732 4.21924 6.80199C4.33452 6.69157 4.45488 6.51361 4.58417 6.42082C4.68768 6.34667 4.83909 6.31922 4.9556 6.26571C4.98421 6.25268 5.01101 6.27773 5.00005 6.22042C4.79079 6.21861 4.60162 6.31962 4.43316 6.43204C4.39947 6.45449 4.17073 6.66311 4.14779 6.64106C4.19691 6.54106 4.28764 6.50559 4.35543 6.41541C4.39582 6.3615 4.47091 6.24607 4.46259 6.18054C4.35218 6.27513 4.22614 6.43305 4.10639 6.5102C3.97223 6.59678 3.75262 6.63545 3.61014 6.74167C3.53504 6.79758 3.42584 6.92885 3.41712 7.02223C3.33694 6.96873 3.38566 6.81622 3.40494 6.73746C3.50175 6.33926 3.95355 6.23805 4.23953 6.00017C4.44189 5.83183 4.59249 5.59415 4.80784 5.43904C5.03069 5.27832 5.33839 5.18172 5.55536 5.03483C5.57606 5.0208 5.60387 5.00396 5.60955 4.97831C5.33007 5.02701 5.02745 5.11699 4.77658 5.24786C4.60365 5.33784 4.41307 5.51159 4.22837 5.5683C4.107 5.60558 3.98501 5.60097 3.86323 5.62862C3.5529 5.69957 3.23769 6.07432 3.25474 6.40078C3.22247 6.39757 3.21131 6.32122 3.20705 6.29637C3.17965 6.13344 3.28113 5.68894 3.38911 5.56129C3.4226 5.52161 3.48775 5.50718 3.52002 5.4693C3.70249 5.25467 3.87825 5.03803 4.15713 4.91659C4.27891 4.86348 4.55839 4.82981 4.70128 4.79254C4.99639 4.71578 5.2913 4.64324 5.56896 4.51678C5.57403 4.48532 5.50198 4.48512 5.48574 4.48832C5.43602 4.49834 5.38467 4.54283 5.33352 4.55506C5.16993 4.59434 4.87522 4.63081 4.72198 4.56187C4.69458 4.54945 4.68971 4.55987 4.69641 4.51718C4.80642 4.5244 4.91703 4.49995 5.02115 4.46708C5.28603 4.38391 5.97347 3.95044 6.15756 3.74543C6.26331 3.62759 6.34165 3.41516 6.44171 3.2845C6.38894 3.25343 6.36682 3.35223 6.34043 3.3849C6.04167 3.75685 5.73417 3.99393 5.29211 4.19353C4.91541 4.36367 4.28967 4.29213 3.97872 4.51999C3.89043 4.58472 3.86323 4.73823 3.73293 4.5763C3.60486 4.41698 3.70512 4.1302 3.80356 3.97589C3.83259 3.94763 3.8405 3.97749 3.84395 4.00555C3.85106 4.06146 3.82021 4.24343 3.91458 4.25044C3.96736 4.25445 4.37816 4.02579 4.4835 3.99453C4.56874 3.96928 4.68991 3.96347 4.78551 3.9336C4.98239 3.87208 5.18901 3.75525 5.3459 3.62518C5.22168 3.61977 5.10356 3.69973 4.98137 3.72619C4.63856 3.80094 4.31991 3.7835 3.98968 3.67168C3.957 3.56767 3.96756 3.47929 3.98623 3.37468C4.01789 3.33901 4.08832 3.50274 4.10923 3.52358C4.17763 3.59212 4.30387 3.65104 4.40231 3.65685C4.53789 3.66486 4.89511 3.57929 5.02542 3.52919C5.0993 3.50073 5.14943 3.41957 5.24381 3.434L5.24137 3.35784C5.14273 3.28931 5.09828 3.41857 5.02156 3.3348L4.97183 3.44923L4.8803 3.434L4.87908 3.35484L4.778 3.41476V3.25464C4.71346 3.24922 4.70778 3.32959 4.69641 3.37468L4.65602 3.27468L4.58518 3.3346C4.54743 3.31876 4.56468 3.25403 4.55048 3.2386C4.54094 3.22818 4.50055 3.2362 4.4837 3.21516C4.44493 3.16666 4.49974 3.06425 4.37187 3.09431L4.39216 2.99411L4.31118 3.03399L4.30915 2.95483L4.25009 2.95383C4.26369 2.8388 4.37714 2.76986 4.35157 2.63318C4.42991 2.61996 4.37187 2.68769 4.3743 2.72437C4.37775 2.77627 4.43803 2.8426 4.41266 2.91375L4.47315 2.87367L4.4835 2.93359L4.61543 2.87367L4.59554 2.96225C4.6274 3.01876 4.68362 2.94441 4.67753 3.01175L4.71671 3.01355C4.73213 2.93539 4.76197 2.85202 4.83849 2.81315C4.86244 2.91856 4.75243 2.97327 4.7577 3.07367L4.82773 3.05243L4.83909 3.09371C4.93875 3.07006 4.97468 2.77407 5.0518 2.77306C5.10904 2.90513 5.00715 3.06946 5.22311 3.07327C5.25396 3.05123 5.27669 2.83539 5.3461 2.81335C5.39441 2.91535 5.29008 3.03018 5.41673 3.07347C5.51355 3.03499 5.50178 2.76264 5.58012 2.6933L5.63005 2.8426C5.63391 2.87066 5.57444 2.93479 5.59007 2.95343C5.62153 2.9911 5.67389 2.84882 5.6812 2.83299C5.71692 2.75503 5.76076 2.65683 5.75244 2.57286C5.8659 2.58028 5.77842 2.70192 5.79324 2.77326C5.95825 2.6434 5.85433 2.41334 5.87787 2.26744C5.88741 2.20792 5.93694 2.16043 5.95662 2.10311C5.99174 2.00071 6.03639 1.77265 5.95561 1.69108C5.87361 1.93177 5.89046 2.30071 5.56916 2.34059L5.54805 2.41194C5.52735 2.41254 5.50848 2.39891 5.48716 2.40332C5.44332 2.41234 5.26431 2.43298 5.21418 2.42897C5.18292 2.42657 5.16404 2.3963 5.13705 2.3963C5.08752 2.3963 4.84579 2.51875 4.80906 2.51234L4.7571 2.442L4.7983 2.35222L4.6134 2.34059C4.52409 2.07405 4.52186 1.78748 4.48492 1.50932L4.2099 0.809104C4.20909 1.054 4.39703 1.25821 4.44818 1.48547C4.49283 1.68427 4.52105 1.9963 4.55007 2.20652C4.55839 2.26584 4.57098 2.3456 4.57483 2.40252C4.57666 2.42997 4.59229 2.52637 4.55494 2.53258L4.53424 2.21213L4.45346 2.27205C4.42058 2.05842 4.42849 1.83938 4.38668 1.62615C4.35441 1.46122 4.27526 1.16883 4.21518 1.01392C4.20543 0.988465 4.2032 0.954998 4.1691 0.949387C4.21376 1.22474 4.33513 1.48386 4.37146 1.76142C4.39825 1.96503 4.4155 2.32316 4.39277 2.52336C4.38932 2.55342 4.38851 2.58509 4.35157 2.5927C4.41185 2.04419 4.28297 1.48727 4.12141 0.96602L4.04712 0.809104C4.03718 0.882251 4.07554 0.953194 4.08 1.02253C4.08284 1.06362 4.06072 1.10771 4.06661 1.15881C4.09888 1.43376 4.19102 1.70812 4.16829 1.99129C4.14779 2.01914 4.09259 1.84559 4.08914 1.81934C4.05625 1.56823 4.07878 1.31252 4.00714 1.05861C3.99942 1.03115 4.0045 0.996482 3.96573 0.989467C3.99699 1.28667 4.04245 1.58186 4.06681 1.88167C4.06864 1.90371 4.08163 1.95642 4.04692 1.95141C4.04793 1.91954 4.03758 1.89229 4.02337 1.86443C3.98339 1.78587 3.93914 1.63176 3.92717 1.53857C3.90058 1.32955 3.92981 1.04358 3.93204 0.824334C3.93224 0.797881 3.9497 0.780245 3.90464 0.769223L3.88394 2.00151L3.80316 2.45262V2.30272C3.88069 1.89229 3.84436 1.46603 3.88394 1.04999C3.85633 1.06121 3.84964 1.1534 3.84598 1.18266C3.83279 1.28767 3.82853 1.4047 3.82305 1.51092L3.58172 1.25761C3.54316 1.20891 3.57644 1.17564 3.60019 1.13035C3.43599 1.13396 3.57259 0.988666 3.55939 0.970229L3.4847 0.920328C3.57543 0.764814 3.54397 0.692068 3.49871 0.528939C3.54397 0.557196 3.58537 0.499479 3.62739 0.510501C3.71913 0.53435 3.65722 0.948184 3.75221 1.02955C3.77941 1.03055 3.79971 0.815717 3.80275 0.779243C3.80722 0.726738 3.77251 0.467615 3.86445 0.518317C3.90586 0.552787 3.92027 0.632748 3.98542 0.629141C3.96878 0.568619 3.90362 0.401682 3.93448 0.348374C3.96248 0.299877 4.04367 0.403085 4.06843 0.417113C4.08771 0.427935 4.19935 0.476433 4.20868 0.468817C4.11085 0.286249 4.03961 0.244565 3.98928 0.249575C3.929 0.255387 3.87054 0.330338 3.83989 0.310498C3.82893 0.303284 3.8267 0.287452 3.8267 0.275227C3.82751 0.259996 3.82954 0.244365 3.8336 0.228132C3.8612 0.118711 3.95964 0.0587905 3.9976 0.0383492C4.01302 0.0299323 4.02926 0.0315355 4.03697 0.0401529C4.03779 0.0409545 4.04286 0.047167 4.04184 0.0547824C4.03981 0.0684099 4.01972 0.0758248 4.01343 0.0782297C3.96959 0.0958652 3.93529 0.137349 3.91479 0.161999C3.88475 0.198071 3.86831 0.244164 3.87683 0.250577C3.88515 0.256589 3.91012 0.21731 3.96106 0.197671C4.00896 0.179233 4.05423 0.188051 4.07858 0.193061C4.18595 0.215306 4.19995 0.288854 4.29961 0.322122C4.33127 0.332743 4.38141 0.342362 4.45244 0.328334C4.42261 0.248774 4.3808 0.210697 4.34751 0.190857C4.24725 0.130936 4.13013 0.178231 4.08366 0.111898C4.06681 0.0880495 4.0664 0.0595921 4.06823 0.0403533C4.10111 -0.0722738 4.49872 0.0762256 4.57849 0.113701C4.83991 0.236349 5.01831 0.464609 5.2367 0.586054C5.36153 0.655594 5.53446 0.673831 5.67673 0.75279C6.01143 0.938164 6.27711 1.36322 6.5022 1.66242C6.69928 1.62495 7.10358 1.6484 7.03031 1.93878C7.02443 1.96223 6.98059 1.93858 6.98952 1.97145L7.0297 1.98087L6.9544 2.14239C7.1048 2.26744 7.15595 2.48869 7.00068 2.63398C6.93695 2.6935 6.86997 2.6937 6.80969 2.74601C6.81537 2.82657 6.78818 2.90353 6.78574 2.98289C6.77782 3.24361 6.82451 3.51556 6.80685 3.78531C6.7762 4.25185 6.5641 4.71338 6.23672 5.04605C6.10154 5.18353 5.9276 5.31459 5.77213 5.42902C5.79973 5.45367 5.85372 5.40898 5.8795 5.39475C5.95196 5.35507 6.02766 5.29595 6.09464 5.24645C6.32014 5.07992 6.52899 4.8735 6.67289 4.63502C6.73175 4.53742 6.74129 4.43101 6.7969 4.33702C6.96212 4.54343 7.11272 4.76188 7.21359 5.00737C7.34938 5.33824 7.36602 5.7142 7.33091 6.06631C7.19593 6.17112 7.08958 6.3128 6.94771 6.4094C6.85881 6.46992 6.73094 6.5074 6.65401 6.58034C6.50037 6.72604 6.40904 6.97875 6.34064 7.17274C6.33698 7.23166 6.36357 7.18977 6.37758 7.16913C6.49103 7.00259 6.61281 6.84107 6.7486 6.69377C6.92193 6.52122 7.18233 6.42463 7.29437 6.20038C7.34166 6.16751 7.44335 6.43665 7.47623 6.46932C6.94486 6.76872 6.90468 7.37294 6.76646 7.90361C6.82755 7.83567 6.88255 7.73086 6.92497 7.6495C7.04838 7.41142 7.1732 6.83506 7.34471 6.70119C7.42305 6.64006 7.47298 6.66692 7.51804 6.57593C7.54463 6.52202 7.60998 6.66351 7.64814 6.70199C7.70091 6.7553 7.81254 6.85329 7.87242 6.90139C7.90936 6.93105 8.05407 6.98696 8.04413 7.03025C7.72162 7.34649 7.45817 7.71944 7.43604 8.18398C7.50018 8.11724 7.51926 8.00201 7.55762 7.91343C7.60329 7.80822 7.652 7.70321 7.71147 7.60441C7.83467 7.4002 8.02708 7.28516 8.12491 7.07013C8.13851 7.06211 8.36522 7.18135 8.39465 7.2016C8.41312 7.21422 8.42185 7.24188 8.44275 7.25871C8.47097 7.28136 8.51927 7.29538 8.53936 7.32184C8.65363 7.47274 8.36725 7.94249 8.32219 8.10722C8.25115 8.36634 8.3228 8.62126 8.41008 8.86515C8.44458 8.87016 8.43057 8.81826 8.43078 8.79461C8.4322 8.66555 8.39851 8.4944 8.4117 8.37496C8.41657 8.33067 8.46914 8.23688 8.48152 8.18418C8.54424 7.91744 8.60614 7.6487 8.66358 7.38236L9.76954 7.91323C9.62929 8.06614 9.50893 8.20983 9.48579 8.42406L9.61792 8.30422C9.68673 8.22807 9.84606 7.96754 9.95992 8.00622C9.97169 8.01023 10.0955 8.13047 10.1493 8.15993C10.2098 8.19279 10.3695 8.23809 10.4004 8.27276C10.4884 8.37196 10.4296 8.77697 10.634 8.38338L11.5057 8.78459C11.6234 8.88719 11.5944 9.04551 11.5968 9.1858C11.6587 9.14471 11.7401 9.06295 11.756 8.9902C11.7677 8.93609 11.6918 8.85393 11.8317 8.92367C11.9581 8.9868 12.2518 9.21085 12.358 9.30564C12.4032 9.34592 12.5457 9.47739 12.5656 9.52167C12.6297 9.66416 12.6263 9.9311 12.632 10.0874L12.7505 9.76156C12.619 9.54672 12.9106 9.79603 12.9673 9.84653C13.0988 9.96397 13.2131 10.1211 13.3442 10.2359C13.5603 10.4249 13.6762 10.4049 13.7578 10.7293C13.796 10.8808 13.7903 11.0273 13.7475 11.1774C13.7195 11.2756 13.6411 11.3552 13.6669 11.4504C13.7083 11.4586 13.7146 11.4309 13.7314 11.4041C13.8585 11.2005 13.9466 10.879 13.8595 10.6489C13.8408 10.5994 13.7875 10.565 13.7887 10.5087C13.8368 10.5105 13.8727 10.5399 13.922 10.5471C14.0324 10.5632 14.2583 10.5273 14.3361 10.5592C14.4607 10.6105 14.6318 11.2375 14.5269 11.3123C14.4956 11.3345 14.412 11.3379 14.373 11.3564C13.8918 11.583 13.453 11.4716 13.007 11.651C12.8652 11.7081 12.7363 11.8201 12.5804 11.8311C12.4097 11.8432 12.2644 11.7183 12.112 11.7127C12.0014 11.7087 11.8873 11.767 11.7832 11.785C11.4225 11.8476 11.0456 11.6754 10.6721 11.6902C10.4785 11.6979 10.2617 11.7574 10.0649 11.772C9.73341 11.7969 9.39568 11.7462 9.06971 11.7714C8.85477 11.7882 8.63212 11.8638 8.41819 11.8896C8.16022 11.9211 7.81681 11.951 7.57162 11.867C7.53367 11.854 7.45329 11.8117 7.44335 11.7722C7.43219 11.7285 7.46608 11.5299 7.48922 11.4902C7.49653 11.4778 7.52514 11.4712 7.53752 11.4554C7.55518 11.4323 7.56533 11.392 7.5836 11.3758C7.60755 11.3548 7.6388 11.3604 7.6589 11.3502C7.6313 11.4303 7.54301 11.4407 7.52149 11.5452C7.51175 11.5931 7.50302 11.7049 7.55721 11.7309C7.56838 11.5051 7.78007 11.3486 7.98628 11.3027C8.24588 11.2447 8.51115 11.2421 8.76709 11.268C8.96498 11.288 9.16592 11.2071 9.35955 11.1758C9.62401 11.1331 9.9033 11.1167 10.1643 11.0686C10.213 11.0596 10.268 11.0045 10.3072 10.9997C10.4115 10.987 10.5987 11.0602 10.7139 11.0694C10.7363 11.0712 10.7894 11.0842 10.7844 11.05C10.6526 11.0255 10.5223 10.9926 10.3904 10.9676C10.362 10.9622 10.3409 10.9359 10.3117 10.9349C10.1416 10.9283 9.59925 11.1029 9.38857 11.1445C9.17221 11.1872 8.92358 11.2456 8.70438 11.2299C8.22964 11.1959 8.10989 11.1229 7.6587 11.3506L7.65829 11.3514ZM5.52715 0.750185L5.3118 0.692068L4.83706 0.649983L5.07961 0.720926C5.16993 0.778442 5.24563 1.0051 5.31444 1.07023C5.37594 1.12835 5.66699 1.17484 5.44596 1.04077L5.2432 0.730144C5.25477 0.718321 5.50929 0.912111 5.52715 0.750385V0.750185ZM5.2022 1.07063L5.17378 0.928544L4.86731 0.749984C4.82915 0.924737 5.08549 0.993275 5.2022 1.07083V1.07063ZM5.66902 0.830347C5.56551 0.811308 5.46606 0.884456 5.57769 0.970229C5.60225 0.955399 5.69155 0.850587 5.66902 0.830347ZM4.55271 1.15079L4.6339 0.850186C4.55738 0.890668 4.46949 1.09268 4.55271 1.15079ZM5.2225 1.25099C5.11269 1.31953 4.76745 1.27043 4.72036 1.1558C4.68606 1.07243 4.69742 0.978044 4.70737 0.892271C4.71102 0.860608 4.73315 0.82694 4.68484 0.870227C4.64222 0.968425 4.59168 1.03736 4.6274 1.14759C4.64628 1.2059 4.80094 1.30651 4.86386 1.33536C4.97447 1.38607 5.18251 1.39228 5.2225 1.2512V1.25099ZM5.58804 1.03035L5.46666 0.879846C5.33656 0.857401 5.50462 1.06783 5.58804 1.03035ZM4.99944 1.11051L4.77638 0.890267C4.77516 0.951391 4.76724 1.01833 4.80621 1.07103L4.99944 1.11051ZM5.85088 1.04959C5.87239 1.01913 5.80318 0.934356 5.78106 0.934156C5.75894 0.933955 5.53303 1.09608 5.56794 1.13055C5.67795 1.16743 5.75143 1.07664 5.85108 1.04939L5.85088 1.04959ZM4.36984 1.01071L4.32985 1.04037C4.41997 1.18987 4.54784 1.37825 4.58823 1.54679C4.62314 1.69188 4.56164 1.89409 4.78531 1.85141C4.81697 1.84539 4.8397 1.81553 4.86832 1.81253C4.95763 1.80351 5.07717 1.85341 5.20382 1.82355C5.25274 1.81193 5.40841 1.68106 5.42546 1.64158C5.46463 1.5514 5.32012 1.68407 5.31119 1.68908C5.21215 1.74299 5.13096 1.76243 5.01872 1.74299C4.9219 1.72615 4.87969 1.66423 4.77638 1.72515C4.75831 1.73577 4.71183 1.83617 4.65561 1.79108C4.64486 1.78247 4.62334 1.56904 4.61177 1.52374C4.56367 1.33717 4.43925 1.18827 4.37004 1.01051L4.36984 1.01071ZM5.85169 1.29128C5.6812 1.31993 5.54805 1.23897 5.38507 1.25099C5.37127 1.37885 5.6467 1.35861 5.73539 1.34639C5.75894 1.34318 5.84601 1.32114 5.85169 1.29128ZM6.13138 1.35541C6.12854 1.3508 6.06704 1.31392 6.05466 1.31953C5.87361 1.5025 6.20465 1.47685 6.13138 1.35541ZM4.80256 1.42515C4.78389 1.41132 4.77902 1.36222 4.7435 1.35541C4.72137 1.3512 4.64425 1.37525 4.6138 1.38126C4.65379 1.42214 4.71853 1.42134 4.76319 1.4542C4.80459 1.48467 4.81941 1.54318 4.86995 1.56924C4.9081 1.58868 5.06743 1.60972 5.11147 1.60852C5.1955 1.60631 5.28298 1.53918 5.30023 1.45781C5.24665 1.3041 5.15674 1.48547 5.06946 1.49088C5.01263 1.49429 4.84945 1.46002 4.80256 1.42515ZM6.11575 1.63176C6.21175 1.63637 6.31953 1.61834 6.31831 1.5027C6.29639 1.47585 6.29395 1.46503 6.25783 1.48126C6.18963 1.51192 6.09038 1.54799 6.11575 1.63176ZM5.85189 1.49168C5.73986 1.53737 5.613 1.47805 5.517 1.49108C5.49041 1.49469 5.47945 1.48186 5.48615 1.52174C5.50665 1.64339 5.81434 1.61092 5.85169 1.49168H5.85189ZM6.25823 2.2931C6.36722 2.27586 6.57242 2.23097 6.64285 2.14219C6.66761 2.11093 6.66071 2.07586 6.67533 2.05401C6.73804 1.96143 6.88905 1.82375 6.76646 1.72054C6.62621 1.6027 6.27102 1.81233 6.22271 1.9476C6.19856 2.01554 6.1943 2.12776 6.17522 2.20131C6.23022 2.22436 6.26452 2.21875 6.25823 2.2929V2.2931ZM5.64162 2.00532C5.69622 1.9498 5.74818 1.83237 5.74047 1.75221C5.58114 1.88467 5.4963 1.99249 5.27324 2.01233C5.01263 2.03538 5.07717 1.97265 4.81555 2.08147C4.7987 2.08848 4.58376 2.12275 4.6343 2.17285C4.7776 2.23298 4.901 2.15602 5.03009 2.15161C5.19814 2.146 5.27527 2.18448 5.46098 2.11734C5.50787 2.10031 5.60773 2.04019 5.64203 2.00532H5.64162ZM4.73558 4.15665C5.01202 4.16267 5.26776 3.9793 5.50665 3.86607C5.67694 3.78531 5.75711 3.79613 5.92334 3.65625C5.98017 3.60835 6.0713 3.52438 6.09505 3.45524L5.6678 3.7847L4.73558 4.15645V4.15665ZM4.49202 5.07891C4.35502 5.11358 4.1622 5.13803 4.0386 5.20216C3.97568 5.23483 3.77332 5.37271 3.71121 5.42C3.68584 5.43924 3.51697 5.59656 3.53829 5.61981C3.82183 5.36249 4.23101 5.38032 4.49202 5.07891ZM6.86672 5.23924C6.57039 5.28774 6.31445 5.53203 6.16872 5.78233C5.99032 6.08875 5.91116 6.3627 5.67714 6.6597C5.60346 6.75309 5.51903 6.82644 5.44576 6.91221C5.42668 6.93466 5.39664 6.94488 5.40537 6.98235L5.86042 6.58014C6.12082 6.18935 6.24382 5.74285 6.60957 5.42601C6.68405 5.36148 6.80949 5.32501 6.86652 5.23904L6.86672 5.23924ZM7.71066 9.47919C8.05245 9.05313 8.03865 8.75132 8.11578 8.2453C8.13749 8.10301 8.19412 7.98397 8.1858 7.84429C7.94752 8.0455 8.02282 8.39039 7.93656 8.67016C7.86694 8.89621 7.69665 9.1876 7.57365 9.39402C7.47359 9.56176 7.2619 9.81487 7.19187 9.979C7.18802 9.98801 7.1866 10.0119 7.20162 10.0087C7.2552 9.99222 7.64977 9.55534 7.71086 9.47919H7.71066ZM8.67312 9.42748V9.11686C8.67312 9.04411 8.71696 8.90663 8.76384 8.84571C8.86898 8.70964 9.08007 8.57456 9.23513 8.50943C9.26436 8.49721 9.33215 8.47456 9.3427 8.4457C9.11802 8.40683 8.9731 8.51424 8.81093 8.64711C8.59031 8.82767 8.40054 9.07557 8.47604 9.37137C8.53815 9.61446 8.82473 9.98681 8.98934 10.1872C9.03054 10.2375 9.18764 10.4307 9.23148 10.4493C9.30069 10.4786 9.22823 10.3828 9.2262 10.3744C9.17749 10.1662 9.16734 10.0495 9.24731 9.84433C9.3425 9.60023 9.50122 9.56396 9.74113 9.51025C10.1259 9.42408 10.4679 9.4369 10.8442 9.55815C11.0726 9.6317 11.29 9.75575 11.5146 9.83811C11.3787 9.67498 11.1481 9.54612 10.9457 9.47799C10.3823 9.2882 9.49432 9.23069 9.06992 9.70925C8.98853 9.80104 8.96864 9.92709 8.90633 10.0283C8.77907 9.85134 8.88826 9.53891 8.97452 9.35534C9.23229 8.80603 9.82637 8.93028 10.3054 9.0884C10.4079 9.12227 10.5094 9.19602 10.6216 9.20684C10.4089 9.05553 10.0829 8.83248 9.81744 8.80884C9.47504 8.77818 9.12553 8.9395 8.86797 9.14912L8.67312 9.42768V9.42748ZM4.6546 9.70805C4.76826 9.61386 5.04957 9.51426 5.11655 9.39281C5.17013 9.29542 5.18292 9.14552 5.20423 9.0367L5.16181 8.50583L5.10275 8.67777C5.08245 8.85874 5.10112 9.26175 5.01507 9.41285C4.98117 9.47237 4.60995 9.66076 4.6548 9.70825L4.6546 9.70805ZM12.0629 10.4295C12.1487 10.3554 12.0931 10.1734 12.0633 10.0782C11.9419 9.69182 11.6955 9.39823 11.3821 9.14752C10.9143 8.77316 10.336 8.5411 9.72854 8.54591C9.72205 8.57937 9.73605 8.58799 9.76365 8.60122C9.87934 8.65633 10.1193 8.67717 10.256 8.71625C10.9457 8.91405 11.4836 9.22307 11.8465 9.85134C11.9441 10.0205 12.0515 10.2351 12.0629 10.4295ZM6.94791 10.0688C6.99094 10.078 6.99419 10.0471 7.01225 10.0223C7.10866 9.88982 7.17198 9.72548 7.25642 9.582C7.31 9.49101 7.40519 9.41045 7.41433 9.30724C7.17929 9.49242 7.01712 9.7846 6.94791 10.0688ZM11.6291 10.076C11.3456 9.79322 10.4996 9.62208 10.1132 9.69663C10.0716 9.70464 9.8081 9.77879 9.78253 9.79242C9.70906 9.8315 9.46022 10.1045 9.40765 10.183C9.31672 10.3187 9.22113 10.5099 9.44439 10.5698C9.42044 10.5265 9.41942 10.4928 9.42856 10.4447C9.46753 10.2377 9.81582 9.90204 10.019 9.84292C10.0707 9.82789 10.0914 9.84673 10.1207 9.84152C10.2808 9.81326 10.7129 9.81527 10.8652 9.87839C10.9057 9.89523 10.9335 9.93711 10.9605 9.94453C11.0022 9.95615 11.0494 9.94212 11.0937 9.95334C11.3527 10.0187 11.6307 10.2511 11.7913 10.457C11.8244 10.4992 11.853 10.5948 11.9001 10.6299C11.8818 10.4606 11.7489 10.1952 11.6291 10.076ZM10.581 10.2291H10.2867C10.1753 10.2291 9.89294 10.3411 9.79958 10.4095C9.7531 10.4435 9.63477 10.56 9.64736 10.6195C9.66522 10.6431 9.7801 10.6469 9.79674 10.6439C9.82718 10.6387 10.077 10.4586 10.1412 10.4259C10.2906 10.3505 10.4566 10.3283 10.581 10.2289V10.2291ZM8.186 10.2493L8.1038 10.2782C7.92438 10.4606 7.78859 10.6832 7.63799 10.8902L7.89556 10.7027C7.89454 10.6449 7.93798 10.6479 7.96233 10.6203C8.05732 10.5115 8.15312 10.3922 8.186 10.2493ZM11.4941 10.4698C11.2187 10.4405 10.9323 10.3728 10.6567 10.4141C10.5365 10.4321 10.2973 10.4858 10.1883 10.5327C10.0967 10.572 9.9857 10.6552 9.95201 10.7502C10.0062 10.7353 10.0744 10.7734 10.1203 10.7666C10.1661 10.7598 10.3042 10.6239 10.3977 10.5992C10.4858 10.5758 10.6102 10.5814 10.7038 10.5614C10.7836 10.5441 10.8658 10.5039 10.9575 10.4888C11.1306 10.4606 11.254 10.4762 11.4237 10.4896C11.446 10.4914 11.4994 10.5043 11.4943 10.47L11.4941 10.4698ZM12.1842 11.2111C12.1296 10.9762 11.8122 10.7071 11.5767 10.6588C11.4363 10.6299 11.1264 10.6425 10.9999 10.7127C10.9463 10.7423 10.9092 10.8289 10.8451 10.8606C10.8408 10.9127 10.8534 10.881 10.8808 10.8758C10.9474 10.863 10.9892 10.8291 11.0434 10.8157C11.3736 10.7339 11.6975 10.7836 11.9713 10.9906C12.0497 11.05 12.0907 11.1632 12.1844 11.2109L12.1842 11.2111ZM4.12648 11.091C4.08832 11.0824 4.07838 11.1123 4.05544 11.1309C3.93285 11.2309 3.81046 11.4299 3.82224 11.5918C3.87622 11.6019 3.85755 11.5806 3.87176 11.5518C3.89632 11.5023 3.91093 11.4498 3.94036 11.3983C3.96208 11.3602 4.1415 11.1061 4.12628 11.091H4.12648ZM0.939917 11.2115C0.814485 11.1644 0.640543 11.2361 0.523634 11.291C0.354564 11.3706 0.185899 11.5075 0.209443 11.7121L0.277437 11.549C0.338124 11.4542 0.431894 11.3864 0.534189 11.3415L0.939715 11.2113L0.939917 11.2115ZM1.36635 11.2914C1.17901 11.262 1.06149 11.2253 0.901354 11.3431C0.75055 11.454 0.543931 11.6526 0.615578 11.8526C0.684586 11.8684 0.647444 11.7764 0.660636 11.7267C0.719497 11.5055 1.00081 11.3427 1.21676 11.3129C1.27481 11.3049 1.34443 11.3492 1.36635 11.2916V11.2914ZM3.53788 11.2914C3.29229 11.2924 3.17965 11.4626 3.19324 11.6921L3.31502 11.4217L3.53808 11.2914H3.53788ZM1.58413 11.3971C1.41141 11.2564 0.954328 11.6091 1.02151 11.8325C1.07387 11.7977 1.07733 11.7269 1.11386 11.6734C1.20682 11.5379 1.4384 11.37 1.6097 11.4516C1.61214 11.4496 1.58921 11.4015 1.58393 11.3971H1.58413ZM8.49025 11.3916C8.22781 11.3762 7.78271 11.4568 7.80057 11.7921L7.86471 11.6454C7.92215 11.5532 8.19006 11.4636 8.3023 11.4361C8.35771 11.4227 8.46061 11.451 8.49025 11.3916Z" fill="#FDFDFD"/>
<path d="M4.22798 2.7343C4.19225 2.73871 4.20869 2.68901 4.20768 2.66436C4.1953 2.37157 4.2227 2.07497 4.20748 1.78258C4.20321 1.70302 4.1953 1.58038 4.18495 1.50422C4.1683 1.38298 4.11594 1.26173 4.10559 1.14149C4.10417 1.12546 4.0995 1.06834 4.12649 1.10121C4.22919 1.4443 4.30409 1.79301 4.30916 2.15293C4.26268 2.18399 4.26837 2.09 4.24868 2.11305C4.24685 2.11505 4.22818 2.16035 4.22818 2.16295V2.7341L4.22798 2.7343Z" fill="#FDFDFD"/>
<path d="M4.0859 2.38361C4.08326 2.40024 4.05343 2.45074 4.04551 2.43351C4.02298 2.3798 4.06561 2.29483 4.06561 2.26336V1.97278H4.0859C4.0719 2.09943 4.10518 2.26216 4.0859 2.38361Z" fill="#FDFDFD"/>
<path d="M6.60245 1.81262L6.48087 1.88276L6.60245 1.93307L6.50117 1.95311L6.55211 2.01303L6.53202 2.05251L6.44048 2.03327L6.50117 2.11323L6.3392 2.05311L6.35909 2.15331L6.28826 2.07315L6.25802 2.13307C6.22148 1.93286 6.44393 1.84609 6.60265 1.81262H6.60245Z" fill="#FDFDFD"/>
<path d="M12.3058 1.89265C12.1254 1.70848 11.9502 1.71649 11.7174 1.79225C11.7651 1.69124 11.761 1.55898 11.7919 1.45697C11.8581 1.23753 12.0564 0.918484 12.2045 0.740325C12.3637 0.548939 12.6827 0.333104 12.9464 0.328895C13.0298 0.327492 13.1175 0.365168 13.1664 0.431903C13.2742 0.579 13.2673 0.702849 13.167 0.848744C12.9884 1.10887 12.662 1.25035 12.4714 1.54475C12.4099 1.63994 12.3535 1.78684 12.3058 1.89245V1.89265Z" fill="#FDFDFD"/>
<path d="M12.7852 3.80416C12.9387 3.99535 13.0351 4.14104 13.2216 4.30537C13.4331 4.49155 13.6708 4.63964 13.9093 4.78875C13.675 4.79816 13.4875 4.98735 13.483 5.21961L13.4228 5.20899C13.3584 5.13585 13.0018 4.95548 12.9797 4.88514C12.9277 4.71921 13.0897 4.45046 13.2803 4.43764L13.1595 4.26729C12.9044 4.25387 12.7035 4.37351 12.6817 4.63824C12.5711 4.51259 12.4331 4.3707 12.3422 4.23202C12.2778 4.13382 12.2594 4.05807 12.2125 3.95927C12.1952 3.9228 12.1151 3.82661 12.1278 3.80035C12.1293 3.79735 12.1573 3.79955 12.1632 3.78232C12.1839 3.72019 12.1674 3.67129 12.2159 3.59734C12.2681 3.51758 12.3594 3.48211 12.4388 3.43722L12.4282 3.33582C12.4743 3.35245 12.4644 3.40716 12.4887 3.44624C12.5691 3.5749 12.6907 3.68632 12.7854 3.80436L12.7852 3.80416Z" fill="#FDFDFD"/>
<path d="M11.8595 1.91284L11.7807 1.98559L11.8114 2.07136C11.9709 2.01545 12.0848 2.09661 12.2248 2.15293L12.1641 2.02266C12.3854 2.00362 12.2721 2.21425 12.2648 2.34271C12.2575 2.47117 12.2567 2.74753 12.276 2.86456C12.2859 2.92528 12.4245 3.28 12.4077 3.29523C12.2585 3.29002 12.0383 3.35575 12.0016 3.51567C11.9725 3.52269 11.9683 3.51006 11.9504 3.49624C11.8158 3.39182 11.6293 2.90124 11.6429 2.73009C11.6581 2.53951 11.7091 2.33389 11.7316 2.14772C11.747 2.01986 11.6766 1.9399 11.8597 1.91284H11.8595Z" fill="#FDFDFD"/>
<path d="M15.4725 10.49C15.4101 10.2565 15.1741 10.088 14.9443 10.0289L15.3028 9.18659C15.5593 9.18158 15.7639 9.27717 15.9141 9.48038C15.8565 9.84411 15.7288 10.2183 15.4723 10.49H15.4725Z" fill="#FDFDFD"/>
<path d="M15.2896 8.90673C15.3089 8.65382 15.263 8.36464 15.2906 8.11614C15.2971 8.05722 15.3547 7.98748 15.3322 7.90672C15.5496 7.86123 15.7923 7.91473 15.9795 8.03498L15.9222 8.07365C16.0146 8.40432 16.0117 8.74842 15.9795 9.0869C15.9598 9.10774 15.6494 8.90653 15.5837 8.90653H15.2894L15.2896 8.90673Z" fill="#FDFDFD"/>
<path d="M15.8983 7.64422C15.6962 7.5837 15.4979 7.52638 15.3097 7.65564C15.2787 7.64141 15.1593 7.33219 15.1329 7.26866C15.124 7.24742 15.0966 7.24702 15.0883 7.22778C15.0382 7.11255 15.027 6.9422 14.9651 6.82276C15.0014 6.80953 15.0181 6.85823 15.0361 6.85803C15.0554 6.85783 15.2657 6.6945 15.3661 6.66765C15.413 6.65502 15.6341 6.64139 15.6659 6.66043C15.7634 6.71915 15.849 6.98689 15.8723 7.09912C15.9077 7.26926 15.8888 7.46886 15.8987 7.64422H15.8983Z" fill="#FDFDFD"/>
<path d="M15.0389 5.8075C15.1694 5.93997 15.2725 6.1065 15.3998 6.24278L15.5735 6.5019C15.386 6.3554 15.1527 6.49028 15.0076 6.63417C14.9652 6.67625 14.9587 6.75 14.9043 6.74218C14.7929 6.42314 14.5808 6.14177 14.2991 5.95099C14.3384 5.78706 14.6595 5.51691 14.8209 5.6113C14.852 5.62954 15.0048 5.77263 15.0391 5.8075H15.0389Z" fill="#FDFDFD"/>
<path d="M15.195 10.8376C15.0479 10.9897 14.8924 11.1448 14.6807 11.2114C14.6882 10.9454 14.6507 10.6529 14.4775 10.4404C14.6229 10.3721 14.7181 10.2977 14.8167 10.1723C15.137 10.1551 15.274 10.3344 15.3907 10.6001C15.3548 10.7038 15.2628 10.7675 15.195 10.8376Z" fill="#FDFDFD"/>
<path d="M14.6807 5.47969C14.4487 5.40413 14.2316 5.62758 14.1934 5.84061C14.166 5.86366 14.0075 5.72779 13.9819 5.69893C13.9326 5.64301 13.9225 5.51355 13.8283 5.56025C13.7962 5.38089 13.7978 5.24722 13.9287 5.10834C13.9827 5.05102 14.0682 5.02677 14.0919 4.93899C13.8634 5.03138 13.6239 5.14822 13.7264 5.4398C13.4658 5.20834 13.867 4.98068 14.0582 4.88208L14.204 4.97847L14.6805 5.47969H14.6807Z" fill="#FDFDFD"/>
<path d="M12.9352 4.478L12.8841 4.55756L12.8238 4.75817C12.7428 4.70666 12.8843 4.43111 12.935 4.478H12.9352Z" fill="#FDFDFD"/>
<path d="M3.32175 0.736112C3.33845 0.736112 3.35199 0.722743 3.35199 0.706252C3.35199 0.689761 3.33845 0.676392 3.32175 0.676392C3.30504 0.676392 3.2915 0.689761 3.2915 0.706252C3.2915 0.722743 3.30504 0.736112 3.32175 0.736112Z" fill="#FDFDFD" stroke="#FDFDFD" stroke-miterlimit="10" stroke-linecap="round"/>
<path d="M3.41416 0.674966C3.42248 0.666749 3.41381 0.64486 3.39478 0.626077C3.37576 0.607294 3.35359 0.598729 3.34527 0.606947C3.33695 0.615164 3.34562 0.637053 3.36464 0.655836C3.38367 0.674619 3.40584 0.683184 3.41416 0.674966Z" fill="#FDFDFD" stroke="#FDFDFD" stroke-miterlimit="10" stroke-linecap="round"/>
<path d="M3.29951 0.901239C3.30688 0.893961 3.30129 0.87664 3.28702 0.862553C3.27276 0.848466 3.25522 0.842946 3.24784 0.850225C3.24047 0.857503 3.24606 0.874823 3.26033 0.888911C3.2746 0.902998 3.29214 0.908518 3.29951 0.901239Z" fill="#FDFDFD" stroke="#FDFDFD" stroke-miterlimit="10" stroke-linecap="round"/>
<path d="M3.24784 0.967345C3.26801 0.967345 3.28437 0.958642 3.28437 0.947906C3.28437 0.93717 3.26801 0.928467 3.24784 0.928467C3.22766 0.928467 3.2113 0.93717 3.2113 0.947906C3.2113 0.958642 3.22766 0.967345 3.24784 0.967345Z" fill="#FDFDFD" stroke="#FDFDFD" stroke-miterlimit="10" stroke-linecap="round"/>
<path d="M3.25151 1.04111C3.26967 1.04111 3.28439 1.03169 3.28439 1.02007C3.28439 1.00844 3.26967 0.999023 3.25151 0.999023C3.23335 0.999023 3.21863 1.00844 3.21863 1.02007C3.21863 1.03169 3.23335 1.04111 3.25151 1.04111Z" fill="#FDFDFD" stroke="#FDFDFD" stroke-miterlimit="10" stroke-linecap="round"/>
<path d="M3.23816 1.11146C3.25777 1.11146 3.27367 1.1032 3.27367 1.09302C3.27367 1.08284 3.25777 1.07458 3.23816 1.07458C3.21854 1.07458 3.20264 1.08284 3.20264 1.09302C3.20264 1.1032 3.21854 1.11146 3.23816 1.11146Z" fill="#FDFDFD" stroke="#FDFDFD" stroke-miterlimit="10" stroke-linecap="round"/>
<path d="M3.23449 1.1817C3.25612 1.1817 3.27366 1.17426 3.27366 1.16507C3.27366 1.15588 3.25612 1.14844 3.23449 1.14844C3.21285 1.14844 3.19531 1.15588 3.19531 1.16507C3.19531 1.17426 3.21285 1.1817 3.23449 1.1817Z" fill="#FDFDFD" stroke="#FDFDFD" stroke-miterlimit="10" stroke-linecap="round"/>
<path d="M3.23998 1.2611C3.26195 1.2611 3.27976 1.25195 3.27976 1.24066C3.27976 1.22937 3.26195 1.22021 3.23998 1.22021C3.21801 1.22021 3.2002 1.22937 3.2002 1.24066C3.2002 1.25195 3.21801 1.2611 3.23998 1.2611Z" fill="#FDFDFD" stroke="#FDFDFD" stroke-miterlimit="10" stroke-linecap="round"/>
<path d="M3.27637 1.32869C3.29278 1.31249 3.30011 1.29346 3.29273 1.28618C3.28536 1.2789 3.26609 1.28613 3.24968 1.30233C3.23327 1.31853 3.22595 1.33757 3.23332 1.34484C3.24069 1.35212 3.25997 1.34489 3.27637 1.32869Z" fill="#FDFDFD" stroke="#FDFDFD" stroke-miterlimit="10" stroke-linecap="round"/>
<path d="M3.32103 1.38773C3.33569 1.37325 3.34038 1.35441 3.3315 1.34564C3.32263 1.33688 3.30354 1.34151 3.28888 1.35599C3.27422 1.37046 3.26953 1.38931 3.2784 1.39807C3.28728 1.40684 3.30636 1.40221 3.32103 1.38773Z" fill="#FDFDFD" stroke="#FDFDFD" stroke-miterlimit="10" stroke-linecap="round"/>
<path d="M3.37716 1.44122C3.39817 1.42048 3.40639 1.39497 3.39553 1.38425C3.38467 1.37353 3.35884 1.38165 3.33784 1.40239C3.31683 1.42313 3.30861 1.44863 3.31947 1.45936C3.33033 1.47008 3.35616 1.46196 3.37716 1.44122Z" fill="#FDFDFD" stroke="#FDFDFD" stroke-miterlimit="10" stroke-linecap="round"/>
<path d="M3.41677 1.49886C3.43571 1.48016 3.44445 1.45846 3.43629 1.4504C3.42813 1.44234 3.40615 1.45097 3.38721 1.46967C3.36826 1.48838 3.35952 1.51007 3.36769 1.51814C3.37585 1.5262 3.39783 1.51757 3.41677 1.49886Z" fill="#FDFDFD" stroke="#FDFDFD" stroke-miterlimit="10" stroke-linecap="round"/>
<path d="M3.48987 1.58374C3.49951 1.58374 3.50732 1.56633 3.50732 1.54486C3.50732 1.52339 3.49951 1.50598 3.48987 1.50598C3.48023 1.50598 3.47241 1.52339 3.47241 1.54486C3.47241 1.56633 3.48023 1.58374 3.48987 1.58374Z" fill="#FDFDFD" stroke="#FDFDFD" stroke-miterlimit="10" stroke-linecap="round"/>
<path d="M3.56679 1.62744C3.58103 1.62744 3.59257 1.61605 3.59257 1.60199C3.59257 1.58793 3.58103 1.57654 3.56679 1.57654C3.55256 1.57654 3.54102 1.58793 3.54102 1.60199C3.54102 1.61605 3.55256 1.62744 3.56679 1.62744Z" fill="#FDFDFD" stroke="#FDFDFD" stroke-miterlimit="10" stroke-linecap="round"/>
<path d="M3.62377 1.6708C3.6361 1.6708 3.64609 1.66093 3.64609 1.64875C3.64609 1.63658 3.6361 1.62671 3.62377 1.62671C3.61144 1.62671 3.60144 1.63658 3.60144 1.64875C3.60144 1.66093 3.61144 1.6708 3.62377 1.6708Z" fill="#FDFDFD" stroke="#FDFDFD" stroke-miterlimit="10" stroke-linecap="round"/>
<path d="M3.69059 1.71649C3.70146 1.71649 3.71027 1.70779 3.71027 1.69705C3.71027 1.68632 3.70146 1.67761 3.69059 1.67761C3.67971 1.67761 3.6709 1.68632 3.6709 1.69705C3.6709 1.70779 3.67971 1.71649 3.69059 1.71649Z" fill="#FDFDFD" stroke="#FDFDFD" stroke-miterlimit="10" stroke-linecap="round"/>
<path d="M3.75706 0.405633C3.80097 0.362275 3.83136 0.321988 3.82494 0.315648C3.81852 0.309309 3.77772 0.339318 3.73381 0.382676C3.68989 0.426034 3.6595 0.466321 3.66592 0.47266C3.67234 0.478999 3.71314 0.44899 3.75706 0.405633Z" fill="#FDFDFD" stroke="#FDFDFD" stroke-miterlimit="10" stroke-linecap="round"/>
</g>
<defs>
<clipPath id="clip0_10_55">
<rect width="16" height="12" fill="white"/>
</clipPath>
</defs>
</svg>
